# Blender 3.3.1
# www.blender.org
o Plane
v -5.000000 0.000000 -1.000000
v -5.000000 0.000000 1.000000
v 5.000000 0.000000 1.000000
v 5.000000 0.000000 -1.000000
v -5.000000 7.000000 -1.000000
v -5.000000 7.000000 1.000000
v 5.000000 7.000000 1.000000
v 5.000000 7.000000 -1.000000
v 0.000000 10.000000 -1.000000
v 0.000000 10.000000 1.000000
vn -0.0000 -0.0000 1.0000
vn 1.0000 -0.0000 -0.0000
vn -1.0000 -0.0000 -0.0000
vn -0.0000 -0.0000 -1.0000
vn 0.5145 0.8575 -0.0000
vn -0.5145 0.8575 -0.0000
vn -0.0000 -1.0000 -0.0000
vt 0.000000 0.000000
vt 0.000000 0.000000
vt 0.000000 0.000000
vt 0.000000 0.000000
vt 0.000000 0.000000
vt 0.000000 0.000000
vt 0.000000 0.000000
vt 0.000000 0.000000
vt 0.000000 0.000000
vt 0.000000 0.000000
s 0
f 2/2/1 3/3/1 7/7/1 6/6/1
f 4/4/2 8/8/2 7/7/2 3/3/2
f 1/1/3 2/2/3 6/6/3 5/5/3
f 1/1/4 5/5/4 8/8/4 4/4/4
f 9/9/5 10/10/5 8/8/5
f 7/7/5 8/8/5 10/10/5
f 7/7/1 10/10/1 6/6/1
f 6/6/6 10/10/6 5/5/6
f 9/9/6 5/5/6 10/10/6
f 8/8/4 5/5/4 9/9/4
f 3/3/7 2/2/7 1/1/7 4/4/7
