# Blender 3.3.1
# www.blender.org
o L123_stone
v 200.000000 0.000000 450.000000
v 75.000000 0.000000 450.000000
v 200.000000 10.000000 450.000000
v 75.000000 10.000000 450.000000
v 200.000000 0.000000 455.000000
v 75.000000 0.000000 455.000000
v 200.000000 10.000000 455.000000
v 75.000000 10.000000 455.000000
v 200.000000 20.000000 450.000000
v 75.000000 20.000000 450.000000
v 200.000000 20.000000 455.000000
v 75.000000 20.000000 455.000000
v -150.000000 0.000000 350.000000
v -50.000000 0.000000 450.000000
v -150.000000 10.000000 350.000000
v -50.000000 10.000000 450.000000
v -153.535538 0.000000 353.535522
v -53.535534 0.000000 453.535522
v -153.535538 10.000000 353.535522
v -53.535534 10.000000 453.535522
v -150.000000 20.000000 350.000000
v -50.000000 20.000000 450.000000
v -153.535538 20.000000 353.535522
v -53.535534 20.000000 453.535522
v 125.000000 10.000000 350.000000
v 125.000000 15.000000 250.000000
v 120.000000 0.000000 350.000000
v 120.000000 5.000000 250.000000
v 120.000000 10.000000 350.000000
v 120.000000 15.000000 250.000000
v 125.000000 19.987524 350.499390
v 125.000000 24.987524 250.499374
v 120.000000 19.987524 350.499390
v 120.000000 24.987524 250.499374
v -50.000000 0.000000 -50.000000
v 50.000000 0.000000 100.000000
v -50.000000 0.000000 100.000000
v 50.000000 0.000000 150.000000
v -50.000000 0.000000 150.000000
v 50.000000 0.000000 200.000000
v 0.000000 10.000000 300.000000
v -100.000000 10.000000 300.000000
v 50.000000 0.000000 -50.000000
v -50.000000 0.000000 200.000000
v 0.000000 0.000000 250.000000
v -100.000000 0.000000 250.000000
v 0.000000 0.000000 300.000000
v -100.000000 0.000000 300.000000
v -60.000000 0.000000 -60.000000
v -60.000000 0.000000 200.000000
v -110.000000 0.000000 250.000000
v -110.000000 0.000000 300.000000
v 60.000000 0.000000 200.000000
v 60.000000 0.000000 -60.000000
v 10.000000 0.000000 250.000000
v 10.000000 0.000000 300.000000
v 50.000000 30.000000 -50.000000
v 50.000000 30.000000 100.000000
v -50.000000 30.000000 100.000000
v 50.000000 30.000000 150.000000
v -50.000000 30.000000 150.000000
v -50.000000 30.000000 200.000000
v -50.000000 30.000000 -50.000000
v 50.000000 30.000000 200.000000
v 0.000000 30.000000 250.000000
v -100.000000 30.000000 250.000000
v 0.000000 30.000000 300.000000
v -100.000000 30.000000 300.000000
v -60.000000 30.000000 -60.000000
v -60.000000 30.000000 200.000000
v -110.000000 30.000000 250.000000
v -110.000000 30.000000 300.000000
v 60.000000 30.000000 200.000000
v 60.000000 30.000000 -60.000000
v 10.000000 30.000000 250.000000
v 10.000000 30.000000 300.000000
v -37.500000 10.000000 300.000000
v -63.500000 10.000000 300.000000
v -37.500000 20.000000 300.000000
v 0.000000 10.000000 310.000000
v -100.000000 10.000000 310.000000
v 0.000000 0.000000 310.000000
v -100.000000 0.000000 310.000000
v 0.000000 30.000000 310.000000
v -100.000000 30.000000 310.000000
v 200.000000 15.000000 200.000000
v 125.000000 15.000000 200.000000
v 100.000000 20.000000 200.000000
v 100.000000 20.000000 250.000000
v 75.000000 20.000000 200.000000
v 75.000000 20.000000 250.000000
v 75.000000 35.000000 150.000000
v 100.000000 35.000000 150.000000
v 100.000000 35.000000 125.000000
v 125.000000 35.000000 150.000000
v 125.000000 40.000000 200.000000
v 100.000000 40.000000 200.000000
v 50.000000 50.000000 250.000000
v 75.000000 50.000000 250.000000
v 100.000000 50.000000 300.000000
v 0.000000 50.000000 300.000000
v 50.000000 50.000000 350.000000
v 200.000000 5.000000 200.000000
v 125.000000 5.000000 200.000000
v 125.000000 5.000000 250.000000
v 100.000000 10.000000 200.000000
v 100.000000 10.000000 250.000000
v 75.000000 10.000000 250.000000
v 75.000000 10.000000 200.000000
v 100.000000 25.000000 150.000000
v 75.000000 25.000000 150.000000
v 100.000000 25.000000 125.000000
v 125.000000 25.000000 150.000000
v 125.000000 30.000000 200.000000
v 100.000000 30.000000 200.000000
v 50.000000 40.000000 250.000000
v 75.000000 40.000000 250.000000
v 205.000000 15.000000 250.000000
v 205.000000 15.000000 200.000000
v 205.000000 5.000000 200.000000
v 200.000000 25.000000 200.000000
v 205.000000 25.000000 200.000000
v 200.000000 5.000000 250.000000
v 205.000000 5.000000 250.000000
v 200.000000 25.000000 250.000000
v 205.000000 25.000000 250.000000
v 200.000000 15.000000 250.000000
v 200.000000 15.000000 300.000000
v 205.000000 15.000000 300.000000
v 205.000000 5.000000 300.000000
v 200.000000 25.000000 300.000000
v 200.000000 5.000000 300.000000
v 205.000000 25.000000 300.000000
v -63.500000 20.000000 300.000000
v -37.500000 10.000000 310.000000
v -63.500000 10.000000 310.000000
v -63.500000 20.000000 310.000000
v -37.500000 20.000000 310.000000
vn -0.0000 -0.0000 1.0000
vn -1.0000 -0.0000 -0.0000
vn 1.0000 -0.0000 -0.0000
vn -0.0000 1.0000 -0.0000
vn -0.0000 -0.0000 -1.0000
vn -0.7071 -0.0000 -0.7071
vn -0.7071 -0.0000 0.7071
vn 0.7071 -0.0000 0.7071
vn 0.7071 -0.0000 -0.7071
vn -0.0000 0.9988 0.0499
vn -0.0000 -0.0499 0.9988
vn -0.0000 0.0499 -0.9988
vn -0.0000 -1.0000 -0.0000
vn 0.4383 0.8717 -0.2191
vn 0.7394 0.6725 0.0336
vn -0.0000 0.8596 0.5109
vn 0.3647 0.8567 0.3647
vn -0.3482 0.8704 -0.3482
vn -0.1826 0.9129 -0.3651
vn -0.0000 0.9806 -0.1961
vn -0.0000 0.9578 0.2873
vn 0.2425 0.9701 -0.0000
vn 0.1961 0.9804 0.0196
vn -0.6667 -0.3333 0.6667
vn -0.3284 -0.7566 0.5654
vn -0.0906 -0.9959 -0.0000
vn -0.0475 -0.9977 -0.0475
vn -0.0000 -0.0200 -0.9998
vn 0.0111 -0.0000 -0.9999
vn -0.0000 -0.9806 0.1961
vn -0.3156 -0.9477 -0.0474
vn 0.8849 0.3276 -0.3310
vn -0.0000 -0.9950 0.0995
vn 0.2408 -0.9631 0.1204
vt 0.000000 0.000000
vt 0.000000 0.000000
vt 0.000000 0.000000
vt 0.000000 0.000000
vt 0.000000 0.000000
vt 0.000000 0.000000
vt 0.000000 0.000000
vt 0.000000 0.000000
vt 0.000000 0.000000
vt 0.000000 0.000000
vt 0.000000 0.000000
vt 0.000000 0.000000
vt 0.000000 0.000000
vt 0.000000 0.000000
vt 0.000000 0.000000
vt 0.000000 0.000000
vt 0.000000 0.000000
vt 0.000000 0.000000
vt 0.000000 0.000000
vt 0.000000 0.000000
vt 0.000000 0.000000
vt 0.000000 0.000000
vt 0.000000 0.000000
vt 0.000000 0.000000
vt 0.000000 0.000000
vt 0.000000 0.000000
vt 0.000000 0.000000
vt 0.000000 0.000000
vt 0.000000 0.000000
vt 0.000000 0.000000
vt 0.000000 0.000000
vt 0.000000 0.000000
vt 0.000000 0.000000
vt 0.000000 0.000000
vt 0.000000 0.000000
vt 0.000000 0.000000
vt 0.000000 0.000000
vt 0.000000 0.000000
vt 0.000000 0.000000
vt 0.000000 0.000000
vt 0.000000 0.000000
vt 0.000000 0.000000
vt 0.000000 0.000000
vt 0.000000 0.000000
vt 0.000000 0.000000
vt 0.000000 0.000000
vt 0.000000 0.000000
vt 0.000000 0.000000
vt 0.000000 0.000000
vt 0.000000 0.000000
vt 0.000000 0.000000
vt 0.000000 0.000000
vt 0.000000 0.000000
vt 0.000000 0.000000
vt 0.000000 0.000000
vt 0.000000 0.000000
vt 0.000000 0.000000
vt 0.000000 0.000000
vt 0.000000 0.000000
vt 0.000000 0.000000
vt 0.000000 0.000000
vt 0.000000 0.000000
vt 0.000000 0.000000
vt 0.000000 0.000000
vt 0.000000 0.000000
vt 0.000000 0.000000
vt 0.000000 0.000000
vt 0.000000 0.000000
vt 0.000000 0.000000
vt 0.000000 0.000000
vt 0.000000 0.000000
vt 0.000000 0.000000
vt 0.000000 0.000000
vt 0.000000 0.000000
vt 0.000000 0.000000
vt 0.000000 0.000000
vt 0.000000 0.000000
vt 0.000000 0.000000
vt 0.000000 0.000000
vt 0.000000 0.000000
vt 0.000000 0.000000
vt 0.000000 0.000000
vt 0.000000 0.000000
vt 0.000000 0.000000
vt 0.000000 0.000000
vt 0.000000 0.000000
vt 0.000000 0.000000
vt 0.000000 0.000000
vt 0.000000 0.000000
vt 0.000000 0.000000
vt 0.000000 0.000000
vt 0.000000 0.000000
vt 0.000000 0.000000
vt 0.000000 0.000000
vt 0.000000 0.000000
vt 0.000000 0.000000
vt 0.000000 0.000000
vt 0.000000 0.000000
vt 0.000000 0.000000
vt 0.000000 0.000000
vt 0.000000 0.000000
vt 0.000000 0.000000
vt 0.000000 0.000000
vt 0.000000 0.000000
vt 0.000000 0.000000
vt 0.000000 0.000000
vt 0.000000 0.000000
vt 0.000000 0.000000
vt 0.000000 0.000000
vt 0.000000 0.000000
vt 0.000000 0.000000
vt 0.000000 0.000000
vt 0.000000 0.000000
vt 0.000000 0.000000
vt 0.000000 0.000000
vt 0.000000 0.000000
vt 0.000000 0.000000
vt 0.000000 0.000000
vt 0.000000 0.000000
vt 0.000000 0.000000
vt 0.000000 0.000000
vt 0.000000 0.000000
vt 0.000000 0.000000
vt 0.000000 0.000000
vt 0.000000 0.000000
vt 0.000000 0.000000
vt 0.000000 0.000000
vt 0.000000 0.000000
vt 0.000000 0.000000
vt 0.000000 0.000000
vt 0.000000 0.000000
vt 0.000000 0.000000
vt 0.000000 0.000000
vt 0.000000 0.000000
vt 0.000000 0.000000
vt 0.000000 0.000000
s 0
f 6/6/1 5/5/1 7/7/1 8/8/1
f 4/4/2 8/8/2 12/12/2 10/10/2
f 4/4/2 2/2/2 6/6/2 8/8/2
f 1/1/3 3/3/3 7/7/3 5/5/3
f 9/9/4 10/10/4 12/12/4 11/11/4
f 3/3/5 4/4/5 10/10/5 9/9/5
f 7/7/3 3/3/3 9/9/3 11/11/3
f 8/8/1 7/7/1 11/11/1 12/12/1
f 15/15/6 13/13/6 17/17/6 19/19/6
f 17/17/7 18/18/7 20/20/7 19/19/7
f 14/14/8 16/16/8 20/20/8 18/18/8
f 15/15/6 19/19/6 23/23/6 21/21/6
f 22/22/4 21/21/4 23/23/4 24/24/4
f 19/19/7 20/20/7 24/24/7 23/23/7
f 16/16/9 15/15/9 21/21/9 22/22/9
f 20/20/8 16/16/8 22/22/8 24/24/8
f 26/26/5 105/104/5 28/28/5 30/30/5
f 27/27/2 29/29/2 30/30/2 28/28/2
f 30/30/2 29/29/2 33/33/2 34/34/2
f 31/31/10 32/32/10 34/34/10 33/33/10
f 29/29/11 25/25/11 31/31/11 33/33/11
f 26/26/12 30/30/12 34/34/12 32/32/12
f 25/25/3 26/26/3 32/32/3 31/31/3
f 47/47/2 67/67/2 65/65/2 45/45/2
f 48/48/3 46/46/3 66/66/3 68/68/3
f 55/55/3 75/75/3 76/76/3 56/56/3
f 44/44/3 39/39/3 61/61/3 62/62/3
f 37/37/3 35/35/3 63/63/3 59/59/3
f 68/68/2 48/48/2 83/83/2 85/85/2
f 47/47/1 56/56/1 76/76/1 67/67/1
f 54/54/3 74/74/3 73/73/3 53/53/3
f 38/38/2 60/60/2 58/58/2 36/36/2
f 50/50/6 51/51/6 71/71/6 70/70/6
f 35/35/1 43/43/1 57/57/1 63/63/1
f 49/49/5 69/69/5 74/74/5 54/54/5
f 49/49/2 50/50/2 70/70/2 69/69/2
f 51/51/2 52/52/2 72/72/2 71/71/2
f 45/45/6 65/65/6 64/64/6 40/40/6
f 39/39/3 37/37/3 59/59/3 61/61/3
f 48/48/1 68/68/1 72/72/1 52/52/1
f 46/46/8 44/44/8 62/62/8 66/66/8
f 53/53/8 73/73/8 75/75/8 55/55/8
f 40/40/2 64/64/2 60/60/2 38/38/2
f 43/43/2 36/36/2 58/58/2 57/57/2
f 57/57/4 74/74/4 69/69/4
f 63/63/4 57/57/4 69/69/4
f 62/62/4 63/63/4 69/69/4
f 69/69/4 70/70/4 62/62/4
f 62/62/4 70/70/4 66/66/4
f 70/70/4 71/71/4 66/66/4
f 66/66/4 71/71/4 68/68/4
f 71/71/4 72/72/4 68/68/4
f 73/73/4 74/74/4 57/57/4
f 64/64/4 73/73/4 57/57/4
f 75/75/4 73/73/4 64/64/4
f 64/64/4 65/65/4 75/75/4
f 75/75/4 65/65/4 76/76/4
f 65/65/4 67/67/4 76/76/4
f 47/47/3 67/67/3 84/84/3 82/82/3
f 68/68/4 85/85/4 84/84/4 67/67/4
f 81/81/1 136/134/1 137/135/1
f 137/135/1 85/85/1 81/81/1
f 137/135/1 138/136/1 84/84/1
f 138/136/1 135/133/1 84/84/1
f 135/133/1 80/80/1 84/84/1
f 41/41/5 77/77/5 67/67/5
f 79/79/5 67/67/5 77/77/5
f 67/67/5 79/79/5 68/68/5
f 79/79/5 134/132/5 68/68/5
f 134/132/5 78/78/5 68/68/5
f 78/78/5 42/42/5 68/68/5
f 87/87/3 26/26/3 105/104/3 104/103/3
f 123/121/13 103/102/13 120/118/13 124/122/13
f 87/87/5 86/86/5 103/102/5 104/103/5
f 127/125/1 26/26/1 105/104/1 123/121/1
f 89/89/1 107/106/1 105/104/1 26/26/1
f 89/89/2 88/88/2 106/105/2 107/106/2
f 88/88/5 87/87/5 104/103/5 106/105/5
f 90/90/5 88/88/5 106/105/5 109/107/5
f 93/92/1 92/91/1 111/109/1 110/108/1
f 92/91/2 111/109/2 109/107/2 90/90/2
f 93/92/3 88/88/3 106/105/3 110/108/3
f 95/94/1 93/92/1 110/108/1 113/111/1
f 95/94/9 113/111/9 112/110/9 94/93/9
f 94/93/6 112/110/6 111/109/6 92/91/6
f 97/96/5 96/95/5 114/112/5 115/113/5
f 99/98/8 117/115/8 114/112/8 96/95/8
f 99/98/1 98/97/1 116/114/1 117/115/1
f 98/97/6 97/96/6 115/113/6 116/114/6
f 100/99/14 32/32/14 99/98/14
f 100/99/15 31/31/15 32/32/15
f 100/99/16 33/33/16 31/31/16
f 100/99/17 102/101/17 33/33/17
f 101/100/4 102/101/4 98/97/4
f 102/101/4 100/99/4 98/97/4
f 98/97/4 100/99/4 99/98/4
f 65/65/2 67/67/2 101/100/2
f 98/97/18 65/65/18 101/100/18
f 98/97/18 64/64/18 65/65/18
f 97/96/19 64/64/19 98/97/19
f 98/97/20 99/98/20 97/96/20
f 96/95/20 97/96/20 99/98/20
f 95/94/4 94/93/4 93/92/4
f 93/92/4 94/93/4 92/91/4
f 92/91/21 90/90/21 93/92/21
f 88/88/21 93/92/21 90/90/21
f 88/88/22 89/89/22 30/30/22
f 88/88/23 30/30/23 87/87/23
f 87/87/4 30/30/4 26/26/4
f 127/125/4 87/87/4 26/26/4
f 86/86/4 87/87/4 127/125/4
f 67/67/1 76/76/1 101/100/1
f 101/100/24 76/76/24 102/101/24
f 102/101/25 76/76/25 33/33/25
f 75/75/26 33/33/26 76/76/26
f 73/73/27 33/33/27 75/75/27
f 34/34/28 99/98/28 32/32/28
f 117/115/29 99/98/29 34/34/29
f 115/113/30 114/112/30 116/114/30
f 117/115/30 116/114/30 114/112/30
f 34/34/31 33/33/31 117/115/31
f 33/33/32 73/73/32 117/115/32
f 73/73/5 64/64/5 97/96/5
f 115/113/33 113/111/33 114/112/33
f 113/111/33 115/113/33 110/108/33
f 117/115/34 73/73/34 97/96/34
f 119/117/3 118/116/3 124/122/3 120/118/3
f 118/116/3 119/117/3 122/120/3 126/124/3
f 103/102/5 86/86/5 119/117/5 120/118/5
f 127/125/1 123/121/1 124/122/1 118/116/1
f 121/119/4 125/123/4 126/124/4 122/120/4
f 86/86/2 127/125/2 125/123/2 121/119/2
f 119/117/5 86/86/5 121/119/5 122/120/5
f 127/125/1 118/116/1 126/124/1 125/123/1
f 118/116/3 129/127/3 130/128/3 124/122/3
f 127/125/2 128/126/2 131/129/2 125/123/2
f 124/122/4 123/121/4 132/130/4 130/128/4
f 123/121/2 132/130/2 128/126/2 127/125/2
f 125/123/4 131/129/4 133/131/4 126/124/4
f 126/124/3 133/131/3 129/127/3 118/116/3
f 130/128/1 133/131/1 131/129/1 132/130/1
f 134/132/3 137/135/3 136/134/3 78/78/3
f 79/79/2 77/77/2 135/133/2 138/136/2
f 79/79/13 138/136/13 137/135/13 134/132/13
f 137/135/1 84/84/1 85/85/1
f 41/41/13 80/80/13 135/133/13 77/77/13
f 81/81/13 42/42/13 78/78/13 136/134/13
l 89 91
l 93 97
l 90 91
l 95 96
l 108 91
l 107 108
l 109 108
