# Blender 3.3.1
# www.blender.org
o tree
v -0.000000 -0.250000 0.750000
v -0.000000 1.250000 0.750000
v -0.146318 -0.250000 0.735589
v -0.146318 1.250000 0.735589
v -0.287013 -0.250000 0.692910
v -0.287013 1.250000 0.692910
v -0.416678 -0.250000 0.623602
v -0.416678 1.250000 0.623602
v -0.530330 -0.250000 0.530330
v -0.530330 1.250000 0.530330
v -0.623602 -0.250000 0.416678
v -0.623602 1.250000 0.416678
v -0.692910 -0.250000 0.287013
v -0.692910 1.250000 0.287013
v -0.735589 -0.250000 0.146318
v -0.735589 1.250000 0.146318
v -0.750000 -0.250000 0.000000
v -0.750000 1.250000 0.000000
v -0.735589 -0.250000 -0.146318
v -0.735589 1.250000 -0.146318
v -0.692910 -0.250000 -0.287013
v -0.692910 1.250000 -0.287013
v -0.623602 -0.250000 -0.416678
v -0.623602 1.250000 -0.416678
v -0.530330 -0.250000 -0.530330
v -0.530330 1.250000 -0.530330
v -0.416678 -0.250000 -0.623602
v -0.416678 1.250000 -0.623602
v -0.287013 -0.250000 -0.692910
v -0.287013 1.250000 -0.692910
v -0.146318 -0.250000 -0.735589
v -0.146318 1.250000 -0.735589
v -0.000000 -0.250000 -0.750000
v -0.000000 1.250000 -0.750000
v 0.146318 -0.250000 -0.735589
v 0.146318 1.250000 -0.735589
v 0.287013 -0.250000 -0.692910
v 0.287013 1.250000 -0.692910
v 0.416678 -0.250000 -0.623602
v 0.416678 1.250000 -0.623602
v 0.530330 -0.250000 -0.530330
v 0.530330 1.250000 -0.530330
v 0.623602 -0.250000 -0.416678
v 0.623602 1.250000 -0.416678
v 0.692910 -0.250000 -0.287013
v 0.692910 1.250000 -0.287013
v 0.735589 -0.250000 -0.146318
v 0.735589 1.250000 -0.146318
v 0.750000 -0.250000 0.000000
v 0.750000 1.250000 0.000000
v 0.735589 -0.250000 0.146318
v 0.735589 1.250000 0.146318
v 0.692910 -0.250000 0.287013
v 0.692910 1.250000 0.287013
v 0.623602 -0.250000 0.416678
v 0.623602 1.250000 0.416678
v 0.530330 -0.250000 0.530330
v 0.530330 1.250000 0.530330
v 0.416678 -0.250000 0.623602
v 0.416678 1.250000 0.623602
v 0.287013 -0.250000 0.692910
v 0.287013 1.250000 0.692910
v 0.146318 -0.250000 0.735589
v 0.146318 1.250000 0.735589
v -0.000000 5.000000 0.571270
v -0.111449 5.000000 0.560293
v -0.218616 5.000000 0.527785
v -0.317381 5.000000 0.474994
v -0.403949 5.000000 0.403949
v -0.474994 5.000000 0.317381
v -0.527785 5.000000 0.218616
v -0.560294 5.000000 0.111449
v -0.571271 5.000000 0.000000
v -0.560294 5.000000 -0.111449
v -0.527785 5.000000 -0.218616
v -0.474994 5.000000 -0.317381
v -0.403949 5.000000 -0.403949
v -0.317381 5.000000 -0.474994
v -0.218616 5.000000 -0.527785
v -0.111449 5.000000 -0.560293
v -0.000000 5.000000 -0.571270
v 0.111449 5.000000 -0.560293
v 0.218616 5.000000 -0.527785
v 0.317381 5.000000 -0.474994
v 0.403949 5.000000 -0.403949
v 0.474994 5.000000 -0.317381
v 0.527785 5.000000 -0.218616
v 0.560293 5.000000 -0.111449
v 0.571270 5.000000 0.000000
v 0.560293 5.000000 0.111449
v 0.527785 5.000000 0.218616
v 0.474994 5.000000 0.317381
v 0.403949 5.000000 0.403949
v 0.317381 5.000000 0.474994
v 0.218616 5.000000 0.527785
v 0.111449 5.000000 0.560293
v -0.921002 6.438342 1.909881
v -0.996878 6.438342 1.902408
v -1.069839 6.438342 1.880275
v -1.137080 6.438342 1.844334
v -1.196018 6.438342 1.795966
v -1.244386 6.438342 1.737029
v -1.280327 6.438342 1.669788
v -1.302460 6.438342 1.596827
v -1.309933 6.438342 1.520950
v -1.302460 6.438342 1.445073
v -1.280327 6.438342 1.372113
v -1.244386 6.438342 1.304872
v -1.196018 6.438342 1.245934
v -1.137080 6.438342 1.197566
v -1.069839 6.438342 1.161625
v -0.996878 6.438342 1.139492
v -0.921002 6.438342 1.132019
v -0.845125 6.438342 1.139492
v -0.772164 6.438342 1.161625
v -0.704923 6.438342 1.197566
v -0.645986 6.438342 1.245934
v -0.597617 6.438342 1.304872
v -0.561676 6.438342 1.372113
v -0.539544 6.438342 1.445073
v -0.532071 6.438342 1.520950
v -0.539544 6.438342 1.596827
v -0.561676 6.438342 1.669788
v -0.597617 6.438342 1.737029
v -0.645986 6.438342 1.795966
v -0.704923 6.438342 1.844334
v -0.772164 6.438342 1.880275
v -0.845125 6.438342 1.902408
v 1.631815 6.306604 -0.743025
v 1.565037 6.306604 -0.749602
v 1.500824 6.306604 -0.769080
v 1.441646 6.306604 -0.800712
v 1.389775 6.306604 -0.843281
v 1.347206 6.306604 -0.895151
v 1.315575 6.306604 -0.954330
v 1.296096 6.306604 -1.018542
v 1.289519 6.306604 -1.085321
v 1.296096 6.306604 -1.152099
v 1.315575 6.306604 -1.216312
v 1.347206 6.306604 -1.275490
v 1.389775 6.306604 -1.327361
v 1.441646 6.306604 -1.369930
v 1.500824 6.306604 -1.401561
v 1.565037 6.306604 -1.421040
v 1.631815 6.306604 -1.427617
v 1.698594 6.306604 -1.421040
v 1.762807 6.306604 -1.401561
v 1.821985 6.306604 -1.369930
v 1.873855 6.306604 -1.327361
v 1.916425 6.306604 -1.275490
v 1.948056 6.306604 -1.216312
v 1.967534 6.306604 -1.152099
v 1.974112 6.306604 -1.085321
v 1.967534 6.306604 -1.018542
v 1.948056 6.306604 -0.954330
v 1.916425 6.306604 -0.895151
v 1.873855 6.306604 -0.843281
v 1.821985 6.306604 -0.800712
v 1.762807 6.306604 -0.769080
v 1.698594 6.306604 -0.749602
v 2.547719 5.670139 -1.993429
v 2.511592 5.670139 -1.996987
v 2.476854 5.670139 -2.007525
v 2.444839 5.670139 -2.024637
v 2.416778 5.670139 -2.047666
v 2.393749 5.670139 -2.075727
v 2.376637 5.670139 -2.107742
v 2.366099 5.670139 -2.142480
v 2.362541 5.670139 -2.178607
v 2.366099 5.670139 -2.214733
v 2.376637 5.670139 -2.249471
v 2.393749 5.670139 -2.281486
v 2.416778 5.670139 -2.309547
v 2.444839 5.670139 -2.332576
v 2.476854 5.670139 -2.349689
v 2.511592 5.670139 -2.360226
v 2.547719 5.670139 -2.363784
v 2.583845 5.670139 -2.360226
v 2.618583 5.670139 -2.349689
v 2.650598 5.670139 -2.332576
v 2.678659 5.670139 -2.309547
v 2.701688 5.670139 -2.281486
v 2.718801 5.670139 -2.249471
v 2.729338 5.670139 -2.214733
v 2.732896 5.670139 -2.178607
v 2.729338 5.670139 -2.142480
v 2.718801 5.670139 -2.107742
v 2.701688 5.670139 -2.075727
v 2.678659 5.670139 -2.047666
v 2.650598 5.670139 -2.024637
v 2.618583 5.670139 -2.007525
v 2.583845 5.670139 -1.996987
v -2.239000 5.745817 2.312191
v -2.286559 5.745817 2.307507
v -2.332291 5.745817 2.293634
v -2.374437 5.745817 2.271106
v -2.411379 5.745817 2.240789
v -2.441696 5.745817 2.203848
v -2.464224 5.745817 2.161701
v -2.478096 5.745817 2.115970
v -2.482780 5.745817 2.068410
v -2.478096 5.745817 2.020851
v -2.464224 5.745817 1.975120
v -2.441696 5.745817 1.932973
v -2.411379 5.745817 1.896031
v -2.374437 5.745817 1.865714
v -2.332291 5.745817 1.843187
v -2.286559 5.745817 1.829314
v -2.239000 5.745817 1.824630
v -2.191441 5.745817 1.829314
v -2.145709 5.745817 1.843187
v -2.103563 5.745817 1.865714
v -2.066621 5.745817 1.896031
v -2.036304 5.745817 1.932973
v -2.013776 5.745817 1.975120
v -1.999904 5.745817 2.020851
v -1.995219 5.745817 2.068410
v -1.999904 5.745817 2.115970
v -2.013776 5.745817 2.161701
v -2.036304 5.745817 2.203848
v -2.066621 5.745817 2.240789
v -2.103563 5.745817 2.271106
v -2.145709 5.745817 2.293634
v -2.191441 5.745817 2.307507
v -1.883844 6.280289 -2.117392
v -1.941149 6.280289 -2.123036
v -1.996251 6.280289 -2.139751
v -2.047034 6.280289 -2.166895
v -2.091545 6.280289 -2.203424
v -2.128075 6.280289 -2.247936
v -2.155219 6.280289 -2.298719
v -2.171934 6.280289 -2.353821
v -2.177578 6.280289 -2.411126
v -2.171934 6.280289 -2.468431
v -2.155219 6.280289 -2.523533
v -2.128075 6.280289 -2.574316
v -2.091545 6.280289 -2.618827
v -2.047034 6.280289 -2.655357
v -1.996251 6.280289 -2.682501
v -1.941149 6.280289 -2.699216
v -1.883844 6.280289 -2.704860
v -1.826539 6.280289 -2.699216
v -1.771437 6.280289 -2.682501
v -1.720654 6.280289 -2.655357
v -1.676142 6.280289 -2.618827
v -1.639613 6.280289 -2.574316
v -1.612469 6.280289 -2.523533
v -1.595754 6.280289 -2.468431
v -1.590110 6.280289 -2.411126
v -1.595754 6.280289 -2.353821
v -1.612469 6.280289 -2.298719
v -1.639613 6.280289 -2.247936
v -1.676142 6.280289 -2.203424
v -1.720654 6.280289 -2.166895
v -1.771437 6.280289 -2.139751
v -1.826539 6.280289 -2.123036
v 2.009488 7.600989 1.709435
v 1.966626 7.600989 1.705214
v 1.925410 7.600989 1.692711
v 1.887426 7.600989 1.672408
v 1.854133 7.600989 1.645085
v 1.826809 7.600989 1.611792
v 1.806506 7.600989 1.573807
v 1.794004 7.600989 1.532592
v 1.789782 7.600989 1.489730
v 1.794004 7.600989 1.446867
v 1.806506 7.600989 1.405652
v 1.826809 7.600989 1.367667
v 1.854133 7.600989 1.334374
v 1.887426 7.600989 1.307051
v 1.925410 7.600989 1.286748
v 1.966626 7.600989 1.274245
v 2.009488 7.600989 1.270024
v 2.052351 7.600989 1.274245
v 2.093566 7.600989 1.286748
v 2.131550 7.600989 1.307051
v 2.164844 7.600989 1.334374
v 2.192167 7.600989 1.367667
v 2.212470 7.600989 1.405652
v 2.224973 7.600989 1.446867
v 2.229194 7.600989 1.489730
v 2.224973 7.600989 1.532592
v 2.212470 7.600989 1.573807
v 2.192167 7.600989 1.611792
v 2.164844 7.600989 1.645085
v 2.131550 7.600989 1.672408
v 2.093566 7.600989 1.692711
v 2.052351 7.600989 1.705214
v -0.921002 6.497191 1.909881
v -0.996878 6.497191 1.902408
v -1.069839 6.497191 1.880275
v -1.137080 6.497191 1.844334
v -1.196018 6.497191 1.795966
v -1.244386 6.497191 1.737029
v -1.280327 6.497191 1.669788
v -1.302460 6.497191 1.596827
v -1.309933 6.497191 1.520950
v -1.302460 6.497191 1.445073
v -1.280327 6.497191 1.372113
v -1.244386 6.497191 1.304872
v -1.196018 6.497191 1.245934
v -1.137080 6.497191 1.197566
v -1.069839 6.497191 1.161625
v -0.996878 6.497191 1.139492
v -0.921002 6.497191 1.132019
v -0.845125 6.497191 1.139492
v -0.772164 6.497191 1.161625
v -0.704923 6.497191 1.197566
v -0.645986 6.497191 1.245934
v -0.597617 6.497191 1.304872
v -0.561676 6.497191 1.372113
v -0.539544 6.497191 1.445073
v -0.532071 6.497191 1.520950
v -0.539544 6.497191 1.596827
v -0.561676 6.497191 1.669788
v -0.597617 6.497191 1.737029
v -0.645986 6.497191 1.795966
v -0.704923 6.497191 1.844334
v -0.772164 6.497191 1.880275
v -0.845125 6.497191 1.902408
v 1.631815 6.349943 -0.743025
v 1.565037 6.349943 -0.749602
v 1.500824 6.349943 -0.769080
v 1.441646 6.349943 -0.800712
v 1.389775 6.349943 -0.843281
v 1.347206 6.349943 -0.895151
v 1.315575 6.349943 -0.954330
v 1.296096 6.349943 -1.018542
v 1.289519 6.349943 -1.085321
v 1.296096 6.349943 -1.152099
v 1.315575 6.349943 -1.216312
v 1.347206 6.349943 -1.275490
v 1.389775 6.349943 -1.327361
v 1.441646 6.349943 -1.369930
v 1.500824 6.349943 -1.401561
v 1.565037 6.349943 -1.421040
v 1.631815 6.349943 -1.427617
v 1.698594 6.349943 -1.421040
v 1.762807 6.349943 -1.401561
v 1.821985 6.349943 -1.369930
v 1.873855 6.349943 -1.327361
v 1.916425 6.349943 -1.275490
v 1.948056 6.349943 -1.216312
v 1.967534 6.349943 -1.152099
v 1.974112 6.349943 -1.085321
v 1.967534 6.349943 -1.018542
v 1.948056 6.349943 -0.954330
v 1.916425 6.349943 -0.895151
v 1.873855 6.349943 -0.843281
v 1.821985 6.349943 -0.800712
v 1.762807 6.349943 -0.769080
v 1.698594 6.349943 -0.749602
v 2.009488 7.624556 1.709435
v 1.966626 7.624556 1.705214
v 1.925410 7.624556 1.692711
v 1.887426 7.624556 1.672408
v 1.854133 7.624556 1.645085
v 1.826809 7.624556 1.611792
v 1.806506 7.624556 1.573807
v 1.794004 7.624556 1.532592
v 1.789782 7.624556 1.489730
v 1.794004 7.624556 1.446867
v 1.806506 7.624556 1.405652
v 1.826809 7.624556 1.367667
v 1.854133 7.624556 1.334374
v 1.887426 7.624556 1.307051
v 1.925410 7.624556 1.286748
v 1.966626 7.624556 1.274245
v 2.009488 7.624556 1.270024
v 2.052351 7.624556 1.274245
v 2.093566 7.624556 1.286748
v 2.131550 7.624556 1.307051
v 2.164844 7.624556 1.334374
v 2.192167 7.624556 1.367667
v 2.212470 7.624556 1.405652
v 2.224973 7.624556 1.446867
v 2.229194 7.624556 1.489730
v 2.224973 7.624556 1.532592
v 2.212470 7.624556 1.573807
v 2.192167 7.624556 1.611792
v 2.164844 7.624556 1.645085
v 2.131550 7.624556 1.672408
v 2.093566 7.624556 1.692711
v 2.052351 7.624556 1.705214
v -1.883844 6.329191 -2.117392
v -1.941149 6.329191 -2.123036
v -1.996251 6.329191 -2.139751
v -2.047034 6.329191 -2.166895
v -2.091545 6.329191 -2.203424
v -2.128075 6.329191 -2.247936
v -2.155219 6.329191 -2.298719
v -2.171934 6.329191 -2.353821
v -2.177578 6.329191 -2.411126
v -2.171934 6.329191 -2.468431
v -2.155219 6.329191 -2.523533
v -2.128075 6.329191 -2.574316
v -2.091545 6.329191 -2.618827
v -2.047034 6.329191 -2.655357
v -1.996251 6.329191 -2.682501
v -1.941149 6.329191 -2.699216
v -1.883844 6.329191 -2.704860
v -1.826539 6.329191 -2.699216
v -1.771437 6.329191 -2.682501
v -1.720654 6.329191 -2.655357
v -1.676142 6.329191 -2.618827
v -1.639613 6.329191 -2.574316
v -1.612469 6.329191 -2.523533
v -1.595754 6.329191 -2.468431
v -1.590110 6.329191 -2.411126
v -1.595754 6.329191 -2.353821
v -1.612469 6.329191 -2.298719
v -1.639613 6.329191 -2.247936
v -1.676142 6.329191 -2.203424
v -1.720654 6.329191 -2.166895
v -1.771437 6.329191 -2.139751
v -1.826539 6.329191 -2.123036
v 2.547719 5.645411 -1.993429
v 2.511592 5.645411 -1.996987
v 2.476854 5.645411 -2.007525
v 2.444839 5.645411 -2.024637
v 2.416778 5.645411 -2.047666
v 2.393749 5.645411 -2.075727
v 2.376637 5.645411 -2.107742
v 2.366099 5.645411 -2.142480
v 2.362541 5.645411 -2.178607
v 2.366099 5.645411 -2.214733
v 2.376637 5.645411 -2.249471
v 2.393749 5.645411 -2.281486
v 2.416778 5.645411 -2.309547
v 2.444839 5.645411 -2.332576
v 2.476854 5.645411 -2.349689
v 2.511592 5.645411 -2.360226
v 2.547719 5.645411 -2.363784
v 2.583845 5.645411 -2.360226
v 2.618583 5.645411 -2.349689
v 2.650598 5.645411 -2.332576
v 2.678659 5.645411 -2.309547
v 2.701688 5.645411 -2.281486
v 2.718801 5.645411 -2.249471
v 2.729338 5.645411 -2.214733
v 2.732896 5.645411 -2.178607
v 2.729338 5.645411 -2.142480
v 2.718801 5.645411 -2.107742
v 2.701688 5.645411 -2.075727
v 2.678659 5.645411 -2.047666
v 2.650598 5.645411 -2.024637
v 2.618583 5.645411 -2.007525
v 2.583845 5.645411 -1.996987
vn -0.0980 -0.0000 0.9952
vn -0.2903 -0.0000 0.9569
vn -0.4714 -0.0000 0.8819
vn -0.6344 -0.0000 0.7730
vn -0.7730 -0.0000 0.6344
vn -0.8819 -0.0000 0.4714
vn -0.9569 -0.0000 0.2903
vn -0.9952 -0.0000 0.0980
vn -0.9952 -0.0000 -0.0980
vn -0.9569 -0.0000 -0.2903
vn -0.8819 -0.0000 -0.4714
vn -0.7730 -0.0000 -0.6344
vn -0.6344 -0.0000 -0.7730
vn -0.4714 -0.0000 -0.8819
vn -0.2903 -0.0000 -0.9569
vn -0.0980 -0.0000 -0.9952
vn 0.0980 -0.0000 -0.9952
vn 0.2903 -0.0000 -0.9569
vn 0.4714 -0.0000 -0.8819
vn 0.6344 -0.0000 -0.7730
vn 0.7730 -0.0000 -0.6344
vn 0.8819 -0.0000 -0.4714
vn 0.9569 -0.0000 -0.2903
vn 0.9952 -0.0000 -0.0980
vn 0.9952 -0.0000 0.0980
vn 0.9569 -0.0000 0.2903
vn 0.8819 -0.0000 0.4714
vn 0.7730 -0.0000 0.6344
vn 0.6344 -0.0000 0.7730
vn 0.4714 -0.0000 0.8819
vn -0.6337 0.0474 0.7721
vn 0.2903 -0.0000 0.9569
vn 0.0980 -0.0000 0.9952
vn -0.0000 -1.0000 -0.0000
vn 0.6613 0.7228 -0.2006
vn -0.6337 0.0474 -0.7721
vn 0.8809 0.0474 -0.4709
vn 0.2900 0.0474 0.9559
vn -0.9941 0.0474 -0.0979
vn 0.2900 0.0474 -0.9559
vn 0.8809 0.0474 0.4709
vn -0.7721 0.0474 0.6337
vn -0.4709 0.0474 -0.8809
vn 0.9559 0.0474 -0.2900
vn -0.0979 0.0474 0.9941
vn 0.0979 0.0474 0.9941
vn -0.9559 0.0474 -0.2900
vn 0.4709 0.0474 -0.8809
vn 0.7721 0.0474 0.6337
vn -0.8809 0.0474 0.4709
vn -0.2900 0.0474 -0.9559
vn 0.9941 0.0474 -0.0979
vn -0.2900 0.0474 0.9559
vn -0.8809 0.0474 -0.4709
vn 0.6337 0.0474 -0.7721
vn 0.6337 0.0474 0.7721
vn -0.9559 0.0474 0.2900
vn -0.0979 0.0474 -0.9941
vn 0.9941 0.0474 0.0979
vn -0.4709 0.0474 0.8809
vn -0.7721 0.0474 -0.6337
vn 0.7721 0.0474 -0.6337
vn 0.4709 0.0474 0.8809
vn -0.9941 0.0474 0.0979
vn 0.0979 0.0474 -0.9941
vn 0.9559 0.0474 0.2900
vn 0.4647 -0.8742 0.1410
vn -0.9419 -0.1768 -0.2857
vn 0.7519 0.6551 -0.0741
vn -0.8803 0.0598 -0.4706
vn 0.8307 0.5507 0.0818
vn -0.7400 0.2891 -0.6073
vn 0.8785 0.3965 0.2665
vn -0.5588 0.4733 -0.6809
vn 0.8660 0.1889 0.4629
vn -0.3759 0.6035 -0.7032
vn -0.0697 -0.7032 0.7076
vn 0.7721 -0.0496 0.6336
vn -0.2102 0.6896 -0.6930
vn -0.1980 -0.7311 0.6529
vn 0.6101 -0.2741 0.7434
vn -0.0654 0.7447 -0.6642
vn -0.3158 -0.7424 0.5908
vn 0.4209 -0.4505 0.7874
vn 0.0615 0.7787 -0.6243
vn -0.4273 -0.7392 0.5206
vn 0.2378 -0.5734 0.7840
vn 0.1750 0.7980 -0.5768
vn -0.5359 -0.7207 0.4398
vn 0.0742 -0.6535 0.7533
vn 0.2792 0.8058 -0.5223
vn -0.6436 -0.6838 0.3440
vn 0.3776 0.8035 -0.4602
vn -0.7496 -0.6216 0.2274
vn 0.4731 0.7908 -0.3883
vn -0.8478 -0.5237 0.0835
vn 0.5676 0.7654 -0.3034
vn -0.9216 -0.3773 -0.0908
vn 0.5944 -0.7837 -0.1803
vn -0.6347 0.7484 -0.1925
vn 0.6530 -0.7546 -0.0643
vn -0.6607 0.6624 -0.3531
vn 0.7083 -0.7025 0.0698
vn -0.6591 0.5225 -0.5409
vn 0.7547 -0.6148 0.2289
vn -0.6034 0.3087 -0.7352
vn 0.7775 -0.4721 0.4156
vn -0.4712 0.0306 -0.8815
vn -0.0652 0.7470 0.6617
vn 0.7474 -0.2553 0.6134
vn -0.2811 -0.2498 -0.9266
vn -0.1743 0.7997 0.5746
vn 0.6342 0.0242 0.7728
vn -0.0866 -0.4682 -0.8794
vn -0.2620 0.8313 0.4902
vn 0.4492 0.3032 0.8404
vn 0.0775 -0.6124 -0.7867
vn -0.3349 0.8493 0.4081
vn 0.2482 0.5187 0.8181
vn 0.2070 -0.7010 -0.6824
vn -0.3977 0.8575 0.3264
vn 0.0736 0.6600 0.7476
vn 0.3098 -0.7537 -0.5796
vn -0.4536 0.8576 0.2425
vn 0.3944 -0.7833 -0.4806
vn -0.5048 0.8496 0.1531
vn 0.4672 -0.7966 -0.3835
vn -0.5524 0.8318 0.0544
vn 0.5329 -0.7968 -0.2848
vn -0.5964 0.8005 -0.0587
vn -0.1154 -0.9175 0.3806
vn 0.5293 -0.5512 0.6450
vn -0.0591 0.7977 -0.6002
vn -0.1788 -0.9253 0.3346
vn 0.3199 -0.7345 0.5985
vn 0.0518 0.8487 -0.5263
vn -0.2367 -0.9278 0.2884
vn 0.1631 -0.8271 0.5378
vn 0.1400 0.8760 -0.4616
vn -0.2923 -0.9257 0.2399
vn 0.0473 -0.8758 0.4804
vn 0.2153 0.8896 -0.4028
vn -0.3485 -0.9186 0.1863
vn 0.2843 0.8940 -0.3464
vn -0.4080 -0.9045 0.1238
vn 0.3518 0.8904 -0.2887
vn -0.4740 -0.8793 0.0467
vn 0.4223 0.8779 -0.2257
vn -0.5496 -0.8336 -0.0541
vn 0.5004 0.8524 -0.1518
vn -0.6360 -0.7472 -0.1929
vn 0.5910 0.8046 -0.0582
vn -0.7208 -0.5762 -0.3853
vn 0.6974 0.7134 0.0687
vn -0.7466 -0.2592 -0.6127
vn 0.8086 0.5347 0.2453
vn -0.6255 0.1669 -0.7622
vn 0.8624 0.2090 0.4610
vn -0.4058 0.5087 -0.7593
vn -0.0422 -0.9026 0.4285
vn 0.7545 -0.2177 0.6192
vn -0.2073 0.7001 -0.6833
vn -0.5915 0.3615 -0.7207
vn 0.4860 -0.8345 0.2598
vn -0.4714 -0.0086 -0.8819
vn -0.0779 0.6074 0.7905
vn 0.5002 -0.7624 0.4105
vn -0.2683 -0.3814 -0.8846
vn -0.1952 0.7401 0.6436
vn 0.4942 -0.6270 0.6022
vn -0.0762 -0.6288 -0.7738
vn -0.2758 0.8109 0.5161
vn 0.4364 -0.3782 0.8164
vn 0.0633 -0.7634 -0.6428
vn -0.3347 0.8495 0.4079
vn 0.2903 -0.0046 0.9569
vn 0.1597 -0.8350 -0.5265
vn -0.3812 0.8699 0.3128
vn 0.0913 0.3646 0.9267
vn 0.2286 -0.8745 -0.4278
vn -0.4207 0.8789 0.2249
vn 0.2807 -0.8968 -0.3420
vn -0.4565 0.8789 0.1385
vn 0.3221 -0.9090 -0.2644
vn -0.4910 0.8698 0.0484
vn 0.3569 -0.9145 -0.1908
vn -0.5256 0.8492 -0.0518
vn 0.3873 -0.9144 -0.1175
vn -0.5607 0.8104 -0.1701
vn 0.4149 -0.9089 -0.0409
vn -0.5941 0.7391 -0.3175
vn 0.4406 -0.8966 0.0434
vn -0.6151 0.6056 -0.5048
vn 0.6511 0.7329 -0.1975
vn -0.4770 -0.8669 -0.1447
vn 0.5532 0.8313 -0.0545
vn -0.3992 -0.8917 -0.2134
vn 0.4703 0.8813 0.0463
vn -0.3302 -0.9042 -0.2710
vn 0.4004 0.9082 0.1215
vn -0.2652 -0.9085 -0.3231
vn 0.3391 0.9231 0.1812
vn -0.1997 -0.9059 -0.3735
vn -0.0448 0.8894 0.4549
vn 0.2824 0.9309 0.2318
vn -0.1291 -0.8956 -0.4256
vn -0.1545 0.8466 0.5093
vn 0.2274 0.9336 0.2770
vn -0.0475 -0.8745 -0.4828
vn -0.3043 0.7637 0.5693
vn 0.1709 0.9319 0.3198
vn 0.0540 -0.8345 -0.5484
vn -0.5104 0.5938 0.6220
vn 0.1099 0.9256 0.3623
vn 0.1896 -0.7572 -0.6250
vn -0.7457 0.2634 0.6120
vn 0.0401 0.9127 0.4066
vn 0.3768 -0.6008 -0.7050
vn -0.8657 -0.1906 0.4628
vn 0.6065 -0.2931 -0.7390
vn -0.8039 -0.5424 0.2439
vn 0.7635 0.1565 -0.6266
vn -0.6816 -0.7287 0.0671
vn 0.7476 0.5304 -0.3996
vn -0.5695 -0.8201 -0.0561
vn 0.8764 -0.4016 -0.2658
vn -0.6632 0.7209 -0.2012
vn 0.8615 -0.5006 -0.0849
vn -0.5974 0.7356 -0.3193
vn 0.8189 -0.5682 0.0807
vn -0.5213 0.7384 -0.4278
vn 0.7578 -0.6106 0.2299
vn -0.4337 0.7298 -0.5285
vn 0.6830 -0.6326 0.3651
vn -0.3327 0.7085 -0.6224
vn -0.0922 -0.3385 0.9364
vn 0.5960 -0.6369 0.4891
vn -0.2150 0.6718 -0.7089
vn -0.2852 -0.1860 0.9402
vn 0.4958 -0.6239 0.6041
vn -0.0773 0.6151 -0.7846
vn -0.4714 -0.0064 0.8819
vn 0.3799 -0.5921 0.7107
vn 0.0830 0.5323 -0.8425
vn -0.6242 0.1790 0.7605
vn 0.2447 -0.5378 0.8068
vn 0.2639 0.4167 -0.8699
vn -0.7254 0.3457 0.5953
vn 0.0873 -0.4552 0.8861
vn 0.4545 0.2656 -0.8503
vn -0.7741 0.4791 0.4138
vn 0.6320 0.0868 -0.7701
vn -0.7812 0.5776 0.2370
vn 0.7692 -0.0989 -0.6313
vn -0.7593 0.6464 0.0748
vn 0.8500 -0.2668 -0.4543
vn -0.7181 0.6924 -0.0707
vn -0.0000 1.0000 -0.0000
vt 1.000000 0.500000
vt 0.000000 0.500000
vt 0.750000 0.490000
vt 1.000000 1.000000
vt 0.000000 1.000000
vt 0.968750 0.500000
vt 0.796822 0.485388
vt 0.968750 1.000000
vt 0.937500 0.500000
vt 0.841844 0.471731
vt 0.937500 1.000000
vt 0.906250 0.500000
vt 0.883337 0.449553
vt 0.906250 1.000000
vt 0.875000 0.500000
vt 0.919706 0.419706
vt 0.875000 1.000000
vt 0.843750 0.500000
vt 0.949553 0.383337
vt 0.843750 1.000000
vt 0.812500 0.500000
vt 0.971731 0.341844
vt 0.812500 1.000000
vt 0.781250 0.500000
vt 0.985388 0.296822
vt 0.781250 1.000000
vt 0.750000 0.500000
vt 0.990000 0.250000
vt 0.750000 1.000000
vt 0.718750 0.500000
vt 0.985388 0.203178
vt 0.718750 1.000000
vt 0.687500 0.500000
vt 0.971731 0.158156
vt 0.687500 1.000000
vt 0.656250 0.500000
vt 0.949553 0.116663
vt 0.656250 1.000000
vt 0.625000 0.500000
vt 0.919706 0.080294
vt 0.625000 1.000000
vt 0.593750 0.500000
vt 0.883337 0.050447
vt 0.593750 1.000000
vt 0.562500 0.500000
vt 0.841844 0.028269
vt 0.562500 1.000000
vt 0.531250 0.500000
vt 0.796822 0.014612
vt 0.531250 1.000000
vt 0.500000 0.500000
vt 0.750000 0.010000
vt 0.500000 1.000000
vt 0.468750 0.500000
vt 0.703178 0.014612
vt 0.468750 1.000000
vt 0.437500 0.500000
vt 0.658156 0.028269
vt 0.437500 1.000000
vt 0.406250 0.500000
vt 0.616663 0.050447
vt 0.406250 1.000000
vt 0.375000 0.500000
vt 0.580294 0.080294
vt 0.375000 1.000000
vt 0.343750 0.500000
vt 0.550447 0.116663
vt 0.343750 1.000000
vt 0.312500 0.500000
vt 0.528269 0.158156
vt 0.312500 1.000000
vt 0.281250 0.500000
vt 0.514612 0.203178
vt 0.281250 1.000000
vt 0.250000 0.500000
vt 0.510000 0.250000
vt 0.250000 1.000000
vt 0.218750 0.500000
vt 0.514612 0.296822
vt 0.218750 1.000000
vt 0.187500 0.500000
vt 0.528269 0.341844
vt 0.187500 1.000000
vt 0.156250 0.500000
vt 0.550447 0.383337
vt 0.156250 1.000000
vt 0.125000 0.500000
vt 0.580294 0.419706
vt 0.125000 1.000000
vt 0.093750 0.500000
vt 0.616663 0.449553
vt 0.093750 1.000000
vt 0.062500 0.500000
vt 0.658156 0.471731
vt 0.062500 1.000000
vt 0.031250 0.500000
vt 0.703178 0.485388
vt 0.031250 1.000000
vt 1.000000 1.000000
vt 0.000000 1.000000
vt 0.968750 1.000000
vt 0.937500 1.000000
vt 0.906250 1.000000
vt 0.875000 1.000000
vt 0.843750 1.000000
vt 0.812500 1.000000
vt 0.781250 1.000000
vt 0.750000 1.000000
vt 0.718750 1.000000
vt 0.687500 1.000000
vt 0.656250 1.000000
vt 0.625000 1.000000
vt 0.593750 1.000000
vt 0.562500 1.000000
vt 0.531250 1.000000
vt 0.500000 1.000000
vt 0.468750 1.000000
vt 0.437500 1.000000
vt 0.406250 1.000000
vt 0.375000 1.000000
vt 0.343750 1.000000
vt 0.312500 1.000000
vt 0.281250 1.000000
vt 0.250000 1.000000
vt 0.218750 1.000000
vt 0.187500 1.000000
vt 0.156250 1.000000
vt 0.125000 1.000000
vt 0.093750 1.000000
vt 0.062500 1.000000
vt 0.031250 1.000000
vt 1.000000 1.000000
vt 0.000000 1.000000
vt 0.968750 1.000000
vt 0.937500 1.000000
vt 0.906250 1.000000
vt 0.875000 1.000000
vt 0.843750 1.000000
vt 0.812500 1.000000
vt 0.781250 1.000000
vt 0.750000 1.000000
vt 0.718750 1.000000
vt 0.687500 1.000000
vt 0.656250 1.000000
vt 0.625000 1.000000
vt 0.593750 1.000000
vt 0.562500 1.000000
vt 0.531250 1.000000
vt 0.500000 1.000000
vt 0.468750 1.000000
vt 0.437500 1.000000
vt 0.406250 1.000000
vt 0.375000 1.000000
vt 0.343750 1.000000
vt 0.312500 1.000000
vt 0.281250 1.000000
vt 0.250000 1.000000
vt 0.218750 1.000000
vt 0.187500 1.000000
vt 0.156250 1.000000
vt 0.125000 1.000000
vt 0.093750 1.000000
vt 0.062500 1.000000
vt 0.031250 1.000000
vt 0.000000 1.000000
vt 1.000000 1.000000
vt 0.968750 1.000000
vt 0.937500 1.000000
vt 0.906250 1.000000
vt 0.875000 1.000000
vt 0.843750 1.000000
vt 0.812500 1.000000
vt 0.781250 1.000000
vt 0.750000 1.000000
vt 0.718750 1.000000
vt 0.687500 1.000000
vt 0.656250 1.000000
vt 0.625000 1.000000
vt 0.593750 1.000000
vt 0.562500 1.000000
vt 0.531250 1.000000
vt 0.500000 1.000000
vt 0.468750 1.000000
vt 0.437500 1.000000
vt 0.406250 1.000000
vt 0.375000 1.000000
vt 0.343750 1.000000
vt 0.312500 1.000000
vt 0.281250 1.000000
vt 0.250000 1.000000
vt 0.218750 1.000000
vt 0.187500 1.000000
vt 0.156250 1.000000
vt 0.125000 1.000000
vt 0.093750 1.000000
vt 0.062500 1.000000
vt 0.031250 1.000000
vt 1.000000 1.000000
vt 0.000000 1.000000
vt 0.968750 1.000000
vt 0.937500 1.000000
vt 0.906250 1.000000
vt 0.875000 1.000000
vt 0.843750 1.000000
vt 0.812500 1.000000
vt 0.781250 1.000000
vt 0.750000 1.000000
vt 0.718750 1.000000
vt 0.687500 1.000000
vt 0.656250 1.000000
vt 0.625000 1.000000
vt 0.593750 1.000000
vt 0.562500 1.000000
vt 0.531250 1.000000
vt 0.500000 1.000000
vt 0.468750 1.000000
vt 0.437500 1.000000
vt 0.406250 1.000000
vt 0.375000 1.000000
vt 0.343750 1.000000
vt 0.312500 1.000000
vt 0.281250 1.000000
vt 0.250000 1.000000
vt 0.218750 1.000000
vt 0.187500 1.000000
vt 0.156250 1.000000
vt 0.125000 1.000000
vt 0.093750 1.000000
vt 0.062500 1.000000
vt 0.031250 1.000000
vt 0.250000 0.490000
vt 1.000000 1.000000
vt 0.000000 1.000000
vt 0.296822 0.485388
vt 0.968750 1.000000
vt 0.341844 0.471731
vt 0.937500 1.000000
vt 0.383337 0.449553
vt 0.906250 1.000000
vt 0.419706 0.419706
vt 0.875000 1.000000
vt 0.449553 0.383337
vt 0.843750 1.000000
vt 0.471731 0.341844
vt 0.812500 1.000000
vt 0.485388 0.296822
vt 0.781250 1.000000
vt 0.490000 0.250000
vt 0.750000 1.000000
vt 0.485388 0.203178
vt 0.718750 1.000000
vt 0.471731 0.158156
vt 0.687500 1.000000
vt 0.449553 0.116663
vt 0.656250 1.000000
vt 0.419706 0.080294
vt 0.625000 1.000000
vt 0.383337 0.050447
vt 0.593750 1.000000
vt 0.341844 0.028269
vt 0.562500 1.000000
vt 0.296822 0.014612
vt 0.531250 1.000000
vt 0.250000 0.010000
vt 0.500000 1.000000
vt 0.203178 0.014612
vt 0.468750 1.000000
vt 0.158156 0.028269
vt 0.437500 1.000000
vt 0.116663 0.050447
vt 0.406250 1.000000
vt 0.080294 0.080294
vt 0.375000 1.000000
vt 0.050447 0.116663
vt 0.343750 1.000000
vt 0.028269 0.158156
vt 0.312500 1.000000
vt 0.014612 0.203178
vt 0.281250 1.000000
vt 0.010000 0.250000
vt 0.250000 1.000000
vt 0.014612 0.296822
vt 0.218750 1.000000
vt 0.028269 0.341844
vt 0.187500 1.000000
vt 0.050447 0.383337
vt 0.156250 1.000000
vt 0.080294 0.419706
vt 0.125000 1.000000
vt 0.116663 0.449553
vt 0.093750 1.000000
vt 0.158156 0.471731
vt 0.062500 1.000000
vt 0.203178 0.485388
vt 0.031250 1.000000
vt 1.000000 1.000000
vt 0.000000 1.000000
vt 0.968750 1.000000
vt 0.937500 1.000000
vt 0.906250 1.000000
vt 0.875000 1.000000
vt 0.843750 1.000000
vt 0.812500 1.000000
vt 0.781250 1.000000
vt 0.750000 1.000000
vt 0.718750 1.000000
vt 0.687500 1.000000
vt 0.656250 1.000000
vt 0.625000 1.000000
vt 0.593750 1.000000
vt 0.562500 1.000000
vt 0.531250 1.000000
vt 0.500000 1.000000
vt 0.468750 1.000000
vt 0.437500 1.000000
vt 0.406250 1.000000
vt 0.375000 1.000000
vt 0.343750 1.000000
vt 0.312500 1.000000
vt 0.281250 1.000000
vt 0.250000 1.000000
vt 0.218750 1.000000
vt 0.187500 1.000000
vt 0.156250 1.000000
vt 0.125000 1.000000
vt 0.093750 1.000000
vt 0.062500 1.000000
vt 0.031250 1.000000
vt 0.000000 1.000000
vt 1.000000 1.000000
vt 0.968750 1.000000
vt 0.937500 1.000000
vt 0.906250 1.000000
vt 0.875000 1.000000
vt 0.843750 1.000000
vt 0.812500 1.000000
vt 0.781250 1.000000
vt 0.750000 1.000000
vt 0.718750 1.000000
vt 0.687500 1.000000
vt 0.656250 1.000000
vt 0.625000 1.000000
vt 0.593750 1.000000
vt 0.562500 1.000000
vt 0.531250 1.000000
vt 0.500000 1.000000
vt 0.468750 1.000000
vt 0.437500 1.000000
vt 0.406250 1.000000
vt 0.375000 1.000000
vt 0.343750 1.000000
vt 0.312500 1.000000
vt 0.281250 1.000000
vt 0.250000 1.000000
vt 0.218750 1.000000
vt 0.187500 1.000000
vt 0.156250 1.000000
vt 0.125000 1.000000
vt 0.093750 1.000000
vt 0.062500 1.000000
vt 0.031250 1.000000
vt 1.000000 1.000000
vt 0.000000 1.000000
vt 0.968750 1.000000
vt 0.937500 1.000000
vt 0.906250 1.000000
vt 0.875000 1.000000
vt 0.843750 1.000000
vt 0.812500 1.000000
vt 0.781250 1.000000
vt 0.750000 1.000000
vt 0.718750 1.000000
vt 0.687500 1.000000
vt 0.656250 1.000000
vt 0.625000 1.000000
vt 0.593750 1.000000
vt 0.562500 1.000000
vt 0.531250 1.000000
vt 0.500000 1.000000
vt 0.468750 1.000000
vt 0.437500 1.000000
vt 0.406250 1.000000
vt 0.375000 1.000000
vt 0.343750 1.000000
vt 0.312500 1.000000
vt 0.281250 1.000000
vt 0.250000 1.000000
vt 0.218750 1.000000
vt 0.187500 1.000000
vt 0.156250 1.000000
vt 0.125000 1.000000
vt 0.093750 1.000000
vt 0.062500 1.000000
vt 0.031250 1.000000
vt 1.000000 1.000000
vt 0.000000 1.000000
vt 0.968750 1.000000
vt 0.937500 1.000000
vt 0.906250 1.000000
vt 0.875000 1.000000
vt 0.843750 1.000000
vt 0.812500 1.000000
vt 0.781250 1.000000
vt 0.750000 1.000000
vt 0.718750 1.000000
vt 0.687500 1.000000
vt 0.656250 1.000000
vt 0.625000 1.000000
vt 0.593750 1.000000
vt 0.562500 1.000000
vt 0.531250 1.000000
vt 0.500000 1.000000
vt 0.468750 1.000000
vt 0.437500 1.000000
vt 0.406250 1.000000
vt 0.375000 1.000000
vt 0.343750 1.000000
vt 0.312500 1.000000
vt 0.281250 1.000000
vt 0.250000 1.000000
vt 0.218750 1.000000
vt 0.187500 1.000000
vt 0.156250 1.000000
vt 0.125000 1.000000
vt 0.093750 1.000000
vt 0.062500 1.000000
vt 0.031250 1.000000
vt 1.000000 1.000000
vt 0.000000 1.000000
vt 0.968750 1.000000
vt 0.937500 1.000000
vt 0.906250 1.000000
vt 0.875000 1.000000
vt 0.843750 1.000000
vt 0.812500 1.000000
vt 0.781250 1.000000
vt 0.750000 1.000000
vt 0.718750 1.000000
vt 0.687500 1.000000
vt 0.656250 1.000000
vt 0.625000 1.000000
vt 0.593750 1.000000
vt 0.562500 1.000000
vt 0.531250 1.000000
vt 0.500000 1.000000
vt 0.468750 1.000000
vt 0.437500 1.000000
vt 0.406250 1.000000
vt 0.375000 1.000000
vt 0.343750 1.000000
vt 0.312500 1.000000
vt 0.281250 1.000000
vt 0.250000 1.000000
vt 0.218750 1.000000
vt 0.187500 1.000000
vt 0.156250 1.000000
vt 0.125000 1.000000
vt 0.093750 1.000000
vt 0.062500 1.000000
vt 0.031250 1.000000
vt 1.000000 1.000000
vt 0.000000 1.000000
vt 0.968750 1.000000
vt 0.937500 1.000000
vt 0.906250 1.000000
vt 0.875000 1.000000
vt 0.843750 1.000000
vt 0.812500 1.000000
vt 0.781250 1.000000
vt 0.750000 1.000000
vt 0.718750 1.000000
vt 0.687500 1.000000
vt 0.656250 1.000000
vt 0.625000 1.000000
vt 0.593750 1.000000
vt 0.562500 1.000000
vt 0.531250 1.000000
vt 0.500000 1.000000
vt 0.468750 1.000000
vt 0.437500 1.000000
vt 0.406250 1.000000
vt 0.375000 1.000000
vt 0.343750 1.000000
vt 0.312500 1.000000
vt 0.281250 1.000000
vt 0.250000 1.000000
vt 0.218750 1.000000
vt 0.187500 1.000000
vt 0.156250 1.000000
vt 0.125000 1.000000
vt 0.093750 1.000000
vt 0.062500 1.000000
vt 0.031250 1.000000
vt 1.000000 1.000000
vt 0.000000 1.000000
vt 0.968750 1.000000
vt 0.937500 1.000000
vt 0.906250 1.000000
vt 0.875000 1.000000
vt 0.843750 1.000000
vt 0.812500 1.000000
vt 0.781250 1.000000
vt 0.750000 1.000000
vt 0.718750 1.000000
vt 0.687500 1.000000
vt 0.656250 1.000000
vt 0.625000 1.000000
vt 0.593750 1.000000
vt 0.562500 1.000000
vt 0.531250 1.000000
vt 0.500000 1.000000
vt 0.468750 1.000000
vt 0.437500 1.000000
vt 0.406250 1.000000
vt 0.375000 1.000000
vt 0.343750 1.000000
vt 0.312500 1.000000
vt 0.281250 1.000000
vt 0.250000 1.000000
vt 0.218750 1.000000
vt 0.187500 1.000000
vt 0.156250 1.000000
vt 0.125000 1.000000
vt 0.093750 1.000000
vt 0.062500 1.000000
vt 0.031250 1.000000
s 0
f 1/1/1 2/4/1 4/8/1 3/6/1
f 3/6/2 4/8/2 6/11/2 5/9/2
f 5/9/3 6/11/3 8/14/3 7/12/3
f 7/12/4 8/14/4 10/17/4 9/15/4
f 9/15/5 10/17/5 12/20/5 11/18/5
f 11/18/6 12/20/6 14/23/6 13/21/6
f 13/21/7 14/23/7 16/26/7 15/24/7
f 15/24/8 16/26/8 18/29/8 17/27/8
f 17/27/9 18/29/9 20/32/9 19/30/9
f 19/30/10 20/32/10 22/35/10 21/33/10
f 21/33/11 22/35/11 24/38/11 23/36/11
f 23/36/12 24/38/12 26/41/12 25/39/12
f 25/39/13 26/41/13 28/44/13 27/42/13
f 27/42/14 28/44/14 30/47/14 29/45/14
f 29/45/15 30/47/15 32/50/15 31/48/15
f 31/48/16 32/50/16 34/53/16 33/51/16
f 33/51/17 34/53/17 36/56/17 35/54/17
f 35/54/18 36/56/18 38/59/18 37/57/18
f 37/57/19 38/59/19 40/62/19 39/60/19
f 39/60/20 40/62/20 42/65/20 41/63/20
f 41/63/21 42/65/21 44/68/21 43/66/21
f 43/66/22 44/68/22 46/71/22 45/69/22
f 45/69/23 46/71/23 48/74/23 47/72/23
f 47/72/24 48/74/24 50/77/24 49/75/24
f 49/75/25 50/77/25 52/80/25 51/78/25
f 51/78/26 52/80/26 54/83/26 53/81/26
f 53/81/27 54/83/27 56/86/27 55/84/27
f 55/84/28 56/86/28 58/89/28 57/87/28
f 57/87/29 58/89/29 60/92/29 59/90/29
f 59/90/30 60/92/30 62/95/30 61/93/30
f 10/17/31 8/14/31 68/103/31 69/104/31
f 61/93/32 62/95/32 64/98/32 63/96/32
f 63/96/33 64/98/33 2/5/33 1/2/33
f 1/3/34 3/7/34 5/10/34 7/13/34 9/16/34 11/19/34 13/22/34 15/25/34 17/28/34 19/31/34 21/34/34 23/37/34 25/40/34 27/43/34 29/46/34 31/49/34 33/52/34 35/55/34 37/58/34 39/61/34 41/64/34 43/67/34 45/70/34 47/73/34 49/76/34 51/79/34 53/82/34 55/85/34 57/88/34 59/91/34 61/94/34 63/97/34
f 88/123/35 87/122/35 119/155/35 120/156/35
f 28/44/36 26/41/36 77/112/36 78/113/36
f 46/71/37 44/68/37 86/121/37 87/122/37
f 64/98/38 62/95/38 95/130/38 96/131/38
f 20/32/39 18/29/39 73/108/39 74/109/39
f 38/59/40 36/56/40 82/117/40 83/118/40
f 56/86/41 54/83/41 91/126/41 92/127/41
f 12/20/42 10/17/42 69/104/42 70/105/42
f 30/47/43 28/44/43 78/113/43 79/114/43
f 48/74/44 46/71/44 87/122/44 88/123/44
f 4/8/45 2/4/45 65/99/45 66/101/45
f 2/5/46 64/98/46 96/131/46 65/100/46
f 22/35/47 20/32/47 74/109/47 75/110/47
f 40/62/48 38/59/48 83/118/48 84/119/48
f 58/89/49 56/86/49 92/127/49 93/128/49
f 14/23/50 12/20/50 70/105/50 71/106/50
f 32/50/51 30/47/51 79/114/51 80/115/51
f 50/77/52 48/74/52 88/123/52 89/124/52
f 6/11/53 4/8/53 66/101/53 67/102/53
f 24/38/54 22/35/54 75/110/54 76/111/54
f 42/65/55 40/62/55 84/119/55 85/120/55
f 60/92/56 58/89/56 93/128/56 94/129/56
f 16/26/57 14/23/57 71/106/57 72/107/57
f 34/53/58 32/50/58 80/115/58 81/116/58
f 52/80/59 50/77/59 89/124/59 90/125/59
f 8/14/60 6/11/60 67/102/60 68/103/60
f 26/41/61 24/38/61 76/111/61 77/112/61
f 44/68/62 42/65/62 85/120/62 86/121/62
f 62/95/63 60/92/63 94/129/63 95/130/63
f 18/29/64 16/26/64 72/107/64 73/108/64
f 36/56/65 34/53/65 81/116/65 82/117/65
f 54/83/66 52/80/66 90/125/66 91/126/66
f 123/159/67 219/285/67 218/283/67 122/158/67
f 75/110/68 74/109/68 106/142/68 107/143/68
f 89/124/69 88/123/69 120/156/69 121/157/69
f 76/111/70 75/110/70 107/143/70 108/144/70
f 90/125/71 89/124/71 121/157/71 122/158/71
f 77/112/72 76/111/72 108/144/72 109/145/72
f 91/126/73 90/125/73 122/158/73 123/159/73
f 78/113/74 77/112/74 109/145/74 110/146/74
f 92/127/75 91/126/75 123/159/75 124/160/75
f 79/114/76 78/113/76 110/146/76 111/147/76
f 66/101/77 65/99/77 97/132/77 98/134/77
f 93/128/78 92/127/78 124/160/78 125/161/78
f 80/115/79 79/114/79 111/147/79 112/148/79
f 67/102/80 66/101/80 98/134/80 99/135/80
f 94/129/81 93/128/81 125/161/81 126/162/81
f 81/116/82 80/115/82 112/148/82 113/149/82
f 68/103/83 67/102/83 99/135/83 100/136/83
f 95/130/84 94/129/84 126/162/84 127/163/84
f 82/117/85 81/116/85 113/149/85 114/150/85
f 69/104/86 68/103/86 100/136/86 101/137/86
f 96/131/87 95/130/87 127/163/87 128/164/87
f 83/118/88 82/117/88 114/150/88 115/151/88
f 70/105/89 69/104/89 101/137/89 102/138/89
f 65/100/90 96/131/90 128/164/90 97/133/90
f 84/119/91 83/118/91 115/151/91 116/152/91
f 71/106/92 70/105/92 102/138/92 103/139/92
f 85/120/93 84/119/93 116/152/93 117/153/93
f 72/107/94 71/106/94 103/139/94 104/140/94
f 86/121/95 85/120/95 117/153/95 118/154/95
f 73/108/96 72/107/96 104/140/96 105/141/96
f 87/122/97 86/121/97 118/154/97 119/155/97
f 74/109/98 73/108/98 105/141/98 106/142/98
f 87/122/99 151/188/99 152/189/99 88/123/99
f 74/109/100 138/175/100 139/176/100 75/110/100
f 88/123/101 152/189/101 153/190/101 89/124/101
f 75/110/102 139/176/102 140/177/102 76/111/102
f 89/124/103 153/190/103 154/191/103 90/125/103
f 76/111/104 140/177/104 141/178/104 77/112/104
f 90/125/105 154/191/105 155/192/105 91/126/105
f 77/112/106 141/178/106 142/179/106 78/113/106
f 91/126/107 155/192/107 156/193/107 92/127/107
f 78/113/108 142/179/108 143/180/108 79/114/108
f 65/99/109 129/166/109 130/167/109 66/101/109
f 92/127/110 156/193/110 157/194/110 93/128/110
f 79/114/111 143/180/111 144/181/111 80/115/111
f 66/101/112 130/167/112 131/168/112 67/102/112
f 93/128/113 157/194/113 158/195/113 94/129/113
f 80/115/114 144/181/114 145/182/114 81/116/114
f 67/102/115 131/168/115 132/169/115 68/103/115
f 94/129/116 158/195/116 159/196/116 95/130/116
f 81/116/117 145/182/117 146/183/117 82/117/117
f 68/103/118 132/169/118 133/170/118 69/104/118
f 95/130/119 159/196/119 160/197/119 96/131/119
f 82/117/120 146/183/120 147/184/120 83/118/120
f 69/104/121 133/170/121 134/171/121 70/105/121
f 96/131/122 160/197/122 129/165/122 65/100/122
f 83/118/123 147/184/123 148/185/123 84/119/123
f 70/105/124 134/171/124 135/172/124 71/106/124
f 84/119/125 148/185/125 149/186/125 85/120/125
f 71/106/126 135/172/126 136/173/126 72/107/126
f 85/120/127 149/186/127 150/187/127 86/121/127
f 72/107/128 136/173/128 137/174/128 73/108/128
f 86/121/129 150/187/129 151/188/129 87/122/129
f 73/108/130 137/174/130 138/175/130 74/109/130
f 130/167/131 131/168/131 163/201/131 162/200/131
f 157/194/132 158/195/132 190/228/132 189/227/132
f 144/181/133 145/182/133 177/215/133 176/214/133
f 131/168/134 132/169/134 164/202/134 163/201/134
f 158/195/135 159/196/135 191/229/135 190/228/135
f 145/182/136 146/183/136 178/216/136 177/215/136
f 132/169/137 133/170/137 165/203/137 164/202/137
f 159/196/138 160/197/138 192/230/138 191/229/138
f 146/183/139 147/184/139 179/217/139 178/216/139
f 133/170/140 134/171/140 166/204/140 165/203/140
f 160/197/141 129/165/141 161/199/141 192/230/141
f 147/184/142 148/185/142 180/218/142 179/217/142
f 134/171/143 135/172/143 167/205/143 166/204/143
f 148/185/144 149/186/144 181/219/144 180/218/144
f 135/172/145 136/173/145 168/206/145 167/205/145
f 149/186/146 150/187/146 182/220/146 181/219/146
f 136/173/147 137/174/147 169/207/147 168/206/147
f 150/187/148 151/188/148 183/221/148 182/220/148
f 137/174/149 138/175/149 170/208/149 169/207/149
f 151/188/150 152/189/150 184/222/150 183/221/150
f 138/175/151 139/176/151 171/209/151 170/208/151
f 152/189/152 153/190/152 185/223/152 184/222/152
f 139/176/153 140/177/153 172/210/153 171/209/153
f 153/190/154 154/191/154 186/224/154 185/223/154
f 140/177/155 141/178/155 173/211/155 172/210/155
f 154/191/156 155/192/156 187/225/156 186/224/156
f 141/178/157 142/179/157 174/212/157 173/211/157
f 155/192/158 156/193/158 188/226/158 187/225/158
f 142/179/159 143/180/159 175/213/159 174/212/159
f 129/166/160 130/167/160 162/200/160 161/198/160
f 156/193/161 157/194/161 189/227/161 188/226/161
f 143/180/162 144/181/162 176/214/162 175/213/162
f 194/234/34 195/236/34 196/238/34 197/240/34 198/242/34 199/244/34 200/246/34 201/248/34 202/250/34 203/252/34 204/254/34 205/256/34 206/258/34 207/260/34 208/262/34 209/264/34 210/266/34 211/268/34 212/270/34 213/272/34 214/274/34 215/276/34 216/278/34 217/280/34 218/282/34 219/284/34 220/286/34 221/288/34 222/290/34 223/292/34 224/294/34 193/231/34
f 110/146/163 206/259/163 205/257/163 109/145/163
f 124/160/164 220/287/164 219/285/164 123/159/164
f 111/147/165 207/261/165 206/259/165 110/146/165
f 98/134/166 194/235/166 193/232/166 97/132/166
f 125/161/167 221/289/167 220/287/167 124/160/167
f 112/148/168 208/263/168 207/261/168 111/147/168
f 99/135/169 195/237/169 194/235/169 98/134/169
f 126/162/170 222/291/170 221/289/170 125/161/170
f 113/149/171 209/265/171 208/263/171 112/148/171
f 100/136/172 196/239/172 195/237/172 99/135/172
f 127/163/173 223/293/173 222/291/173 126/162/173
f 114/150/174 210/267/174 209/265/174 113/149/174
f 101/137/175 197/241/175 196/239/175 100/136/175
f 128/164/176 224/295/176 223/293/176 127/163/176
f 115/151/177 211/269/177 210/267/177 114/150/177
f 102/138/178 198/243/178 197/241/178 101/137/178
f 97/133/179 193/233/179 224/295/179 128/164/179
f 116/152/180 212/271/180 211/269/180 115/151/180
f 103/139/181 199/245/181 198/243/181 102/138/181
f 117/153/182 213/273/182 212/271/182 116/152/182
f 104/140/183 200/247/183 199/245/183 103/139/183
f 118/154/184 214/275/184 213/273/184 117/153/184
f 105/141/185 201/249/185 200/247/185 104/140/185
f 119/155/186 215/277/186 214/275/186 118/154/186
f 106/142/187 202/251/187 201/249/187 105/141/187
f 120/156/188 216/279/188 215/277/188 119/155/188
f 107/143/189 203/253/189 202/251/189 106/142/189
f 121/157/190 217/281/190 216/279/190 120/156/190
f 108/144/191 204/255/191 203/253/191 107/143/191
f 122/158/192 218/283/192 217/281/192 121/157/192
f 109/145/193 205/257/193 204/255/193 108/144/193
f 88/123/194 87/122/194 247/319/194 248/320/194
f 75/110/195 74/109/195 234/306/195 235/307/195
f 89/124/196 88/123/196 248/320/196 249/321/196
f 76/111/197 75/110/197 235/307/197 236/308/197
f 90/125/198 89/124/198 249/321/198 250/322/198
f 77/112/199 76/111/199 236/308/199 237/309/199
f 91/126/200 90/125/200 250/322/200 251/323/200
f 78/113/201 77/112/201 237/309/201 238/310/201
f 92/127/202 91/126/202 251/323/202 252/324/202
f 79/114/203 78/113/203 238/310/203 239/311/203
f 66/101/204 65/99/204 225/296/204 226/298/204
f 93/128/205 92/127/205 252/324/205 253/325/205
f 80/115/206 79/114/206 239/311/206 240/312/206
f 67/102/207 66/101/207 226/298/207 227/299/207
f 94/129/208 93/128/208 253/325/208 254/326/208
f 81/116/209 80/115/209 240/312/209 241/313/209
f 68/103/210 67/102/210 227/299/210 228/300/210
f 95/130/211 94/129/211 254/326/211 255/327/211
f 82/117/212 81/116/212 241/313/212 242/314/212
f 69/104/213 68/103/213 228/300/213 229/301/213
f 96/131/214 95/130/214 255/327/214 256/328/214
f 83/118/215 82/117/215 242/314/215 243/315/215
f 70/105/216 69/104/216 229/301/216 230/302/216
f 65/100/217 96/131/217 256/328/217 225/297/217
f 84/119/218 83/118/218 243/315/218 244/316/218
f 71/106/219 70/105/219 230/302/219 231/303/219
f 85/120/220 84/119/220 244/316/220 245/317/220
f 72/107/221 71/106/221 231/303/221 232/304/221
f 86/121/222 85/120/222 245/317/222 246/318/222
f 73/108/223 72/107/223 232/304/223 233/305/223
f 87/122/224 86/121/224 246/318/224 247/319/224
f 74/109/225 73/108/225 233/305/225 234/306/225
f 87/122/226 279/352/226 280/353/226 88/123/226
f 74/109/227 266/339/227 267/340/227 75/110/227
f 88/123/228 280/353/228 281/354/228 89/124/228
f 75/110/229 267/340/229 268/341/229 76/111/229
f 89/124/230 281/354/230 282/355/230 90/125/230
f 76/111/231 268/341/231 269/342/231 77/112/231
f 90/125/232 282/355/232 283/356/232 91/126/232
f 77/112/233 269/342/233 270/343/233 78/113/233
f 91/126/234 283/356/234 284/357/234 92/127/234
f 78/113/235 270/343/235 271/344/235 79/114/235
f 65/99/236 257/330/236 258/331/236 66/101/236
f 92/127/237 284/357/237 285/358/237 93/128/237
f 79/114/238 271/344/238 272/345/238 80/115/238
f 66/101/239 258/331/239 259/332/239 67/102/239
f 93/128/240 285/358/240 286/359/240 94/129/240
f 80/115/241 272/345/241 273/346/241 81/116/241
f 67/102/242 259/332/242 260/333/242 68/103/242
f 94/129/243 286/359/243 287/360/243 95/130/243
f 81/116/244 273/346/244 274/347/244 82/117/244
f 68/103/245 260/333/245 261/334/245 69/104/245
f 95/130/246 287/360/246 288/361/246 96/131/246
f 82/117/247 274/347/247 275/348/247 83/118/247
f 69/104/248 261/334/248 262/335/248 70/105/248
f 96/131/249 288/361/249 257/329/249 65/100/249
f 83/118/250 275/348/250 276/349/250 84/119/250
f 70/105/251 262/335/251 263/336/251 71/106/251
f 84/119/252 276/349/252 277/350/252 85/120/252
f 71/106/253 263/336/253 264/337/253 72/107/253
f 85/120/254 277/350/254 278/351/254 86/121/254
f 72/107/255 264/337/255 265/338/255 73/108/255
f 86/121/256 278/351/256 279/352/256 87/122/256
f 73/108/257 265/338/257 266/339/257 74/109/257
f 111/147/14 110/146/14 302/376/14 303/377/14
f 98/134/1 97/132/1 289/362/1 290/364/1
f 125/161/28 124/160/28 316/390/28 317/391/28
f 112/148/15 111/147/15 303/377/15 304/378/15
f 99/135/2 98/134/2 290/364/2 291/365/2
f 125/161/29 317/391/29 318/392/29 126/162/29
f 113/149/16 112/148/16 304/378/16 305/379/16
f 100/136/3 99/135/3 291/365/3 292/366/3
f 127/163/30 126/162/30 318/392/30 319/393/30
f 114/150/17 113/149/17 305/379/17 306/380/17
f 101/137/4 100/136/4 292/366/4 293/367/4
f 128/164/32 127/163/32 319/393/32 320/394/32
f 114/150/18 306/380/18 307/381/18 115/151/18
f 102/138/5 101/137/5 293/367/5 294/368/5
f 97/133/33 128/164/33 320/394/33 289/363/33
f 115/151/19 307/381/19 308/382/19 116/152/19
f 103/139/6 102/138/6 294/368/6 295/369/6
f 116/152/20 308/382/20 309/383/20 117/153/20
f 104/140/7 103/139/7 295/369/7 296/370/7
f 118/154/21 117/153/21 309/383/21 310/384/21
f 105/141/8 104/140/8 296/370/8 297/371/8
f 119/155/22 118/154/22 310/384/22 311/385/22
f 106/142/9 105/141/9 297/371/9 298/372/9
f 120/156/23 119/155/23 311/385/23 312/386/23
f 107/143/10 106/142/10 298/372/10 299/373/10
f 121/157/24 120/156/24 312/386/24 313/387/24
f 108/144/11 107/143/11 299/373/11 300/374/11
f 122/158/25 121/157/25 313/387/25 314/388/25
f 109/145/12 108/144/12 300/374/12 301/375/12
f 122/158/26 314/388/26 315/389/26 123/159/26
f 110/146/13 109/145/13 301/375/13 302/376/13
f 124/160/27 123/159/27 315/389/27 316/390/27
f 290/364/258 289/363/258 320/394/258 319/393/258 318/392/258 317/391/258 316/390/258 315/389/258 314/388/258 313/387/258 312/386/258 311/385/258 310/384/258 309/383/258 308/382/258 307/381/258 306/380/258 305/379/258 304/378/258 303/377/258 302/376/258 301/375/258 300/374/258 299/373/258 298/372/258 297/371/258 296/370/258 295/369/258 294/368/258 293/367/258 292/366/258 291/365/258
f 146/183/17 145/182/17 337/412/17 338/413/17
f 133/170/4 132/169/4 324/399/4 325/400/4
f 159/196/32 351/426/32 352/427/32 160/197/32
f 147/184/18 146/183/18 338/413/18 339/414/18
f 134/171/5 133/170/5 325/400/5 326/401/5
f 160/197/33 352/427/33 321/396/33 129/165/33
f 148/185/19 147/184/19 339/414/19 340/415/19
f 135/172/6 134/171/6 326/401/6 327/402/6
f 149/186/20 148/185/20 340/415/20 341/416/20
f 136/173/7 135/172/7 327/402/7 328/403/7
f 150/187/21 149/186/21 341/416/21 342/417/21
f 137/174/8 136/173/8 328/403/8 329/404/8
f 151/188/22 150/187/22 342/417/22 343/418/22
f 138/175/9 137/174/9 329/404/9 330/405/9
f 152/189/23 151/188/23 343/418/23 344/419/23
f 139/176/10 138/175/10 330/405/10 331/406/10
f 153/190/24 152/189/24 344/419/24 345/420/24
f 140/177/11 139/176/11 331/406/11 332/407/11
f 154/191/25 153/190/25 345/420/25 346/421/25
f 141/178/12 140/177/12 332/407/12 333/408/12
f 155/192/26 154/191/26 346/421/26 347/422/26
f 142/179/13 141/178/13 333/408/13 334/409/13
f 156/193/27 155/192/27 347/422/27 348/423/27
f 143/180/14 142/179/14 334/409/14 335/410/14
f 129/166/1 321/395/1 322/397/1 130/167/1
f 157/194/28 156/193/28 348/423/28 349/424/28
f 144/181/15 143/180/15 335/410/15 336/411/15
f 130/167/2 322/397/2 323/398/2 131/168/2
f 158/195/29 157/194/29 349/424/29 350/425/29
f 145/182/16 144/181/16 336/411/16 337/412/16
f 132/169/3 131/168/3 323/398/3 324/399/3
f 159/196/30 158/195/30 350/425/30 351/426/30
f 322/397/258 321/396/258 352/427/258 351/426/258 350/425/258 349/424/258 348/423/258 347/422/258 346/421/258 345/420/258 344/419/258 343/418/258 342/417/258 341/416/258 340/415/258 339/414/258 338/413/258 337/412/258 336/411/258 335/410/258 334/409/258 333/408/258 332/407/258 331/406/258 330/405/258 329/404/258 328/403/258 327/402/258 326/401/258 325/400/258 324/399/258 323/398/258
f 259/332/2 258/331/2 354/430/2 355/431/2
f 286/359/29 285/358/29 381/457/29 382/458/29
f 273/346/16 272/345/16 368/444/16 369/445/16
f 260/333/3 259/332/3 355/431/3 356/432/3
f 287/360/30 286/359/30 382/458/30 383/459/30
f 274/347/17 273/346/17 369/445/17 370/446/17
f 261/334/4 260/333/4 356/432/4 357/433/4
f 288/361/32 287/360/32 383/459/32 384/460/32
f 275/348/18 274/347/18 370/446/18 371/447/18
f 262/335/5 261/334/5 357/433/5 358/434/5
f 257/329/33 288/361/33 384/460/33 353/429/33
f 276/349/19 275/348/19 371/447/19 372/448/19
f 263/336/6 262/335/6 358/434/6 359/435/6
f 277/350/20 276/349/20 372/448/20 373/449/20
f 264/337/7 263/336/7 359/435/7 360/436/7
f 277/350/21 373/449/21 374/450/21 278/351/21
f 265/338/8 264/337/8 360/436/8 361/437/8
f 278/351/22 374/450/22 375/451/22 279/352/22
f 266/339/9 265/338/9 361/437/9 362/438/9
f 279/352/23 375/451/23 376/452/23 280/353/23
f 267/340/10 266/339/10 362/438/10 363/439/10
f 280/353/24 376/452/24 377/453/24 281/354/24
f 268/341/11 267/340/11 363/439/11 364/440/11
f 281/354/25 377/453/25 378/454/25 282/355/25
f 269/342/12 268/341/12 364/440/12 365/441/12
f 283/356/26 282/355/26 378/454/26 379/455/26
f 270/343/13 269/342/13 365/441/13 366/442/13
f 284/357/27 283/356/27 379/455/27 380/456/27
f 271/344/14 270/343/14 366/442/14 367/443/14
f 258/331/1 257/330/1 353/428/1 354/430/1
f 285/358/28 284/357/28 380/456/28 381/457/28
f 272/345/15 271/344/15 367/443/15 368/444/15
f 354/430/258 353/429/258 384/460/258 383/459/258 382/458/258 381/457/258 380/456/258 379/455/258 378/454/258 377/453/258 376/452/258 375/451/258 374/450/258 373/449/258 372/448/258 371/447/258 370/446/258 369/445/258 368/444/258 367/443/258 366/442/258 365/441/258 364/440/258 363/439/258 362/438/258 361/437/258 360/436/258 359/435/258 358/434/258 357/433/258 356/432/258 355/431/258
f 251/323/26 250/322/26 410/487/26 411/488/26
f 237/309/13 397/474/13 398/475/13 238/310/13
f 252/324/27 251/323/27 411/488/27 412/489/27
f 238/310/14 398/475/14 399/476/14 239/311/14
f 226/298/1 225/296/1 385/461/1 386/463/1
f 253/325/28 252/324/28 412/489/28 413/490/28
f 239/311/15 399/476/15 400/477/15 240/312/15
f 227/299/2 226/298/2 386/463/2 387/464/2
f 254/326/29 253/325/29 413/490/29 414/491/29
f 240/312/16 400/477/16 401/478/16 241/313/16
f 227/299/19 228/300/19 388/465/19 387/464/19
f 255/327/30 254/326/30 414/491/30 415/492/30
f 241/313/17 401/478/17 402/479/17 242/314/17
f 228/300/4 388/465/4 389/466/4 229/301/4
f 256/328/32 255/327/32 415/492/32 416/493/32
f 242/314/18 402/479/18 403/480/18 243/315/18
f 229/301/5 389/466/5 390/467/5 230/302/5
f 225/297/33 256/328/33 416/493/33 385/462/33
f 243/315/19 403/480/19 404/481/19 244/316/19
f 230/302/6 390/467/6 391/468/6 231/303/6
f 244/316/20 404/481/20 405/482/20 245/317/20
f 231/303/7 391/468/7 392/469/7 232/304/7
f 246/318/21 245/317/21 405/482/21 406/483/21
f 232/304/8 392/469/8 393/470/8 233/305/8
f 247/319/22 246/318/22 406/483/22 407/484/22
f 233/305/9 393/470/9 394/471/9 234/306/9
f 248/320/23 247/319/23 407/484/23 408/485/23
f 234/306/10 394/471/10 395/472/10 235/307/10
f 249/321/24 248/320/24 408/485/24 409/486/24
f 235/307/11 395/472/11 396/473/11 236/308/11
f 250/322/25 249/321/25 409/486/25 410/487/25
f 236/308/12 396/473/12 397/474/12 237/309/12
f 386/463/258 385/462/258 416/493/258 415/492/258 414/491/258 413/490/258 412/489/258 411/488/258 410/487/258 409/486/258 408/485/258 407/484/258 406/483/258 405/482/258 404/481/258 403/480/258 402/479/258 401/478/258 400/477/258 399/476/258 398/475/258 397/474/258 396/473/258 395/472/258 394/471/258 393/470/258 392/469/258 391/468/258 390/467/258 389/466/258 388/465/258 387/464/258
f 180/218/20 181/219/20 437/515/20 436/514/20
f 167/205/7 168/206/7 424/502/7 423/501/7
f 181/219/21 182/220/21 438/516/21 437/515/21
f 168/206/8 169/207/8 425/503/8 424/502/8
f 182/220/22 183/221/22 439/517/22 438/516/22
f 169/207/9 170/208/9 426/504/9 425/503/9
f 183/221/23 184/222/23 440/518/23 439/517/23
f 170/208/10 171/209/10 427/505/10 426/504/10
f 184/222/24 185/223/24 441/519/24 440/518/24
f 171/209/11 172/210/11 428/506/11 427/505/11
f 185/223/25 186/224/25 442/520/25 441/519/25
f 172/210/12 173/211/12 429/507/12 428/506/12
f 186/224/26 187/225/26 443/521/26 442/520/26
f 173/211/13 174/212/13 430/508/13 429/507/13
f 187/225/27 188/226/27 444/522/27 443/521/27
f 174/212/14 175/213/14 431/509/14 430/508/14
f 162/200/1 418/496/1 417/494/1 161/198/1
f 188/226/28 189/227/28 445/523/28 444/522/28
f 175/213/15 176/214/15 432/510/15 431/509/15
f 163/201/2 419/497/2 418/496/2 162/200/2
f 189/227/29 190/228/29 446/524/29 445/523/29
f 176/214/16 177/215/16 433/511/16 432/510/16
f 163/201/3 164/202/3 420/498/3 419/497/3
f 190/228/30 191/229/30 447/525/30 446/524/30
f 177/215/17 178/216/17 434/512/17 433/511/17
f 164/202/4 165/203/4 421/499/4 420/498/4
f 192/230/32 448/526/32 447/525/32 191/229/32
f 178/216/18 179/217/18 435/513/18 434/512/18
f 165/203/5 166/204/5 422/500/5 421/499/5
f 161/199/33 417/495/33 448/526/33 192/230/33
f 179/217/19 180/218/19 436/514/19 435/513/19
f 166/204/6 167/205/6 423/501/6 422/500/6
f 418/496/34 419/497/34 420/498/34 421/499/34 422/500/34 423/501/34 424/502/34 425/503/34 426/504/34 427/505/34 428/506/34 429/507/34 430/508/34 431/509/34 432/510/34 433/511/34 434/512/34 435/513/34 436/514/34 437/515/34 438/516/34 439/517/34 440/518/34 441/519/34 442/520/34 443/521/34 444/522/34 445/523/34 446/524/34 447/525/34 448/526/34 417/495/34
