# Blender 3.3.1
# www.blender.org
o rock
v 0.000000 -1.500000 0.000000
v -1.809018 -0.670829 -1.445745
v 0.690970 -0.670830 -2.339285
v 2.236066 -0.670823 0.000000
v 0.690970 -0.670830 2.339285
v -1.809018 -0.670829 1.445745
v -0.690970 0.670830 -2.339285
v 1.809018 0.670829 -1.445745
v 1.809018 0.670829 1.445745
v -0.690970 0.670830 2.339285
v -2.236066 0.670823 0.000000
v 0.000000 1.500000 0.000000
v 0.406139 -1.275982 -1.374987
v -1.063307 -1.275981 -0.849781
v -0.657172 -0.788606 -2.224782
v -2.126620 -0.788604 0.000000
v -1.063307 -1.275981 0.849781
v 1.314324 -1.275977 0.000000
v 1.720474 -0.788604 -1.374992
v 0.406139 -1.275982 1.374987
v 1.720474 -0.788604 1.374992
v -0.657172 -0.788606 2.224782
v -2.377645 0.000000 -0.849785
v -2.377645 0.000000 0.849785
v 0.000000 0.000000 -2.750000
v -1.469464 0.000000 -2.224796
v 2.377645 0.000000 -0.849785
v 1.469464 0.000000 -2.224796
v 1.469464 0.000000 2.224796
v 2.377645 0.000000 0.849785
v -1.469464 0.000000 2.224796
v 0.000000 0.000000 2.750000
v -1.720474 0.788604 -1.374992
v 0.657172 0.788606 -2.224782
v 2.126620 0.788604 0.000000
v 0.657172 0.788606 2.224782
v -1.720474 0.788604 1.374992
v -0.406139 1.275982 -1.374987
v -1.314324 1.275977 0.000000
v 1.063307 1.275981 -0.849781
v 1.063307 1.275981 0.849781
v -0.406139 1.275982 1.374987
vn -0.0639 -0.9818 -0.1788
vn -0.5269 -0.8299 -0.1834
vn 0.1670 -0.9798 -0.1103
vn 0.1670 -0.9798 0.1103
vn -0.0639 -0.9818 0.1788
vn -0.8326 -0.5066 -0.2242
vn -0.0243 -0.5401 -0.8413
vn 0.8201 -0.5076 -0.2641
vn 0.5487 -0.5258 0.6500
vn -0.5123 -0.5277 0.6776
vn -0.8153 -0.2127 -0.5385
vn 0.3280 -0.2240 -0.9177
vn 0.9784 -0.2065 -0.0000
vn 0.3280 -0.2240 0.9177
vn -0.8153 -0.2127 0.5385
vn -0.3127 0.8434 -0.4369
vn 0.3594 0.8411 -0.4043
vn 0.5269 0.8299 0.1834
vn -0.0297 0.8506 0.5250
vn -0.5439 0.8285 0.1330
vn -0.1670 0.9798 0.1103
vn -0.3389 0.9138 0.2238
vn -0.3127 0.8434 0.4369
vn 0.0639 0.9818 0.1788
vn 0.1306 0.9217 0.3653
vn 0.3594 0.8411 0.4043
vn 0.2062 0.9785 -0.0000
vn 0.4167 0.9091 -0.0000
vn 0.5269 0.8299 -0.1834
vn 0.0639 0.9818 -0.1788
vn 0.1306 0.9217 -0.3653
vn -0.0297 0.8506 -0.5250
vn -0.1670 0.9798 -0.1103
vn -0.3389 0.9138 -0.2238
vn -0.5439 0.8285 -0.1330
vn -0.8201 0.5076 0.2641
vn -0.7928 0.3119 0.5236
vn -0.5487 0.5258 0.6500
vn 0.0243 0.5401 0.8413
vn 0.3180 0.3276 0.8897
vn 0.5123 0.5277 0.6776
vn 0.8326 0.5066 0.2242
vn 0.9529 0.3033 -0.0000
vn 0.8326 0.5066 -0.2242
vn 0.5123 0.5277 -0.6776
vn 0.3180 0.3276 -0.8897
vn 0.0243 0.5401 -0.8413
vn -0.5487 0.5258 -0.6500
vn -0.7928 0.3119 -0.5236
vn -0.8201 0.5076 -0.2641
vn -0.3280 0.2240 0.9177
vn -0.3180 -0.3276 0.8897
vn -0.0243 -0.5401 0.8413
vn 0.8153 0.2127 0.5385
vn 0.7928 -0.3119 0.5236
vn 0.8201 -0.5076 0.2641
vn 0.8153 0.2127 -0.5385
vn 0.7928 -0.3119 -0.5236
vn 0.5487 -0.5258 -0.6500
vn -0.3280 0.2240 -0.9177
vn -0.3180 -0.3276 -0.8897
vn -0.5123 -0.5277 -0.6776
vn -0.9784 0.2065 -0.0000
vn -0.9529 -0.3033 -0.0000
vn -0.8326 -0.5066 0.2242
vn -0.3594 -0.8411 0.4043
vn -0.1306 -0.9217 0.3653
vn 0.0297 -0.8506 0.5250
vn 0.3127 -0.8434 0.4369
vn 0.3389 -0.9138 0.2238
vn 0.5439 -0.8285 0.1330
vn 0.5439 -0.8285 -0.1330
vn 0.3389 -0.9138 -0.2238
vn 0.3127 -0.8434 -0.4369
vn -0.5269 -0.8299 0.1834
vn -0.4167 -0.9091 -0.0000
vn -0.2062 -0.9785 -0.0000
vn 0.0297 -0.8506 -0.5250
vn -0.1306 -0.9217 -0.3653
vn -0.3594 -0.8411 -0.4043
vt 0.181819 0.000000
vt 0.909091 0.000000
vt 0.727273 0.000000
vt 0.545455 0.000000
vt 0.363637 0.000000
vt 0.272728 0.157461
vt 1.000000 0.157461
vt 0.090910 0.157461
vt 0.818182 0.157461
vt 0.636364 0.157461
vt 0.454546 0.157461
vt 0.181819 0.314921
vt 0.000000 0.314921
vt 0.909091 0.314921
vt 0.727273 0.314921
vt 0.545455 0.314921
vt 0.363637 0.314921
vt 0.454546 0.472382
vt 0.636364 0.472382
vt 0.818182 0.472382
vt 0.090910 0.472382
vt 0.272728 0.472382
vt 0.954545 0.078731
vt 0.136365 0.078731
vt 0.318182 0.078731
vt 0.227273 0.078731
vt 0.181819 0.157461
vt 0.363637 0.157461
vt 0.500000 0.078731
vt 0.409092 0.078731
vt 0.772727 0.078731
vt 0.863636 0.078731
vt 0.909091 0.157461
vt 0.590909 0.078731
vt 0.681818 0.078731
vt 0.727273 0.157461
vt 0.545455 0.157461
vt 0.318182 0.236191
vt 0.409092 0.236191
vt 0.136365 0.236191
vt 0.227273 0.236191
vt 0.863636 0.236191
vt 0.045455 0.236191
vt 0.954545 0.236191
vt 0.681818 0.236191
vt 0.772727 0.236191
vt 0.500000 0.236191
vt 0.590909 0.236191
vt 0.272728 0.314921
vt 0.090910 0.314921
vt 0.818182 0.314921
vt 0.636364 0.314921
vt 0.454546 0.314921
vt 0.136365 0.393651
vt 0.227273 0.393651
vt 0.409092 0.393651
vt 0.318182 0.393651
vt 0.863636 0.393651
vt 0.045455 0.393651
vt 0.681818 0.393651
vt 0.772727 0.393651
vt 0.500000 0.393651
vt 0.590909 0.393651
s 0
f 1/1/1 14/26/1 13/24/1
f 2/6/2 14/25/2 16/28/2
f 1/2/3 13/23/3 18/32/3
f 1/3/4 18/31/4 20/35/4
f 1/4/5 20/34/5 17/29/5
f 2/6/6 16/28/6 23/38/6
f 3/8/7 15/27/7 25/40/7
f 4/9/8 19/33/8 27/42/8
f 5/10/9 21/36/9 29/45/9
f 6/11/10 22/37/10 31/47/10
f 2/6/11 23/38/11 26/41/11
f 3/8/12 25/40/12 28/43/12
f 4/9/13 27/42/13 30/46/13
f 5/10/14 29/45/14 32/48/14
f 6/11/15 31/47/15 24/39/15
f 7/12/16 33/49/16 38/55/16
f 8/13/17 34/50/17 40/59/17
f 9/15/18 35/51/18 41/61/18
f 10/16/19 36/52/19 42/63/19
f 11/17/20 37/53/20 39/56/20
f 39/56/21 42/62/21 12/18/21
f 39/56/22 37/53/22 42/62/22
f 37/53/23 10/16/23 42/62/23
f 42/63/24 41/60/24 12/19/24
f 42/63/25 36/52/25 41/60/25
f 36/52/26 9/15/26 41/60/26
f 41/61/27 40/58/27 12/20/27
f 41/61/28 35/51/28 40/58/28
f 35/51/29 8/14/29 40/58/29
f 40/59/30 38/54/30 12/21/30
f 40/59/31 34/50/31 38/54/31
f 34/50/32 7/12/32 38/54/32
f 38/55/33 39/57/33 12/22/33
f 38/55/34 33/49/34 39/57/34
f 33/49/35 11/17/35 39/57/35
f 24/39/36 37/53/36 11/17/36
f 24/39/37 31/47/37 37/53/37
f 31/47/38 10/16/38 37/53/38
f 32/48/39 36/52/39 10/16/39
f 32/48/40 29/45/40 36/52/40
f 29/45/41 9/15/41 36/52/41
f 30/46/42 35/51/42 9/15/42
f 30/46/43 27/42/43 35/51/43
f 27/42/44 8/14/44 35/51/44
f 28/43/45 34/50/45 8/13/45
f 28/43/46 25/40/46 34/50/46
f 25/40/47 7/12/47 34/50/47
f 26/41/48 33/49/48 7/12/48
f 26/41/49 23/38/49 33/49/49
f 23/38/50 11/17/50 33/49/50
f 31/47/51 32/48/51 10/16/51
f 31/47/52 22/37/52 32/48/52
f 22/37/53 5/10/53 32/48/53
f 29/45/54 30/46/54 9/15/54
f 29/45/55 21/36/55 30/46/55
f 21/36/56 4/9/56 30/46/56
f 27/42/57 28/44/57 8/14/57
f 27/42/58 19/33/58 28/44/58
f 19/33/59 3/7/59 28/44/59
f 25/40/60 26/41/60 7/12/60
f 25/40/61 15/27/61 26/41/61
f 15/27/62 2/6/62 26/41/62
f 23/38/63 24/39/63 11/17/63
f 23/38/64 16/28/64 24/39/64
f 16/28/65 6/11/65 24/39/65
f 17/29/66 22/37/66 6/11/66
f 17/29/67 20/34/67 22/37/67
f 20/34/68 5/10/68 22/37/68
f 20/35/69 21/36/69 5/10/69
f 20/35/70 18/31/70 21/36/70
f 18/31/71 4/9/71 21/36/71
f 18/32/72 19/33/72 4/9/72
f 18/32/73 13/23/73 19/33/73
f 13/23/74 3/7/74 19/33/74
f 16/28/75 17/30/75 6/11/75
f 16/28/76 14/25/76 17/30/76
f 14/25/77 1/5/77 17/30/77
f 13/24/78 15/27/78 3/8/78
f 13/24/79 14/26/79 15/27/79
f 14/26/80 2/6/80 15/27/80
