# Blender 3.3.1
# www.blender.org
o dragon
v 5.000000 -10.000000 15.000000
v 5.000001 -10.000000 20.000000
v 5.000000 -5.000000 10.000000
v 5.000000 0.000000 -0.000000
v 5.000000 -10.000000 -5.000000
v 5.000000 -10.000000 -0.000000
v -0.000000 0.000000 -10.000000
v -0.000001 0.000000 -30.000000
v 0.000000 0.000000 10.000000
v 0.000001 15.000000 15.000000
v 0.000001 10.000000 20.000000
v 4.000000 -10.000000 1.000000
v 3.000000 -10.000000 -0.000000
v 3.000000 -10.000000 -5.000000
v 3.000000 -5.000000 -10.000000
v 5.000000 -11.000000 -0.000000
v 4.000000 -11.000000 1.000000
v 3.000000 -11.000000 -0.000000
v 3.000000 -11.000000 -5.000000
v 5.000000 -11.000000 -5.000000
v 3.000000 -6.000000 -10.000000
v 5.000000 0.000000 -10.000000
v 5.000000 -5.000000 -10.000000
v 2.500000 0.000000 -10.000000
v 5.000000 -6.000000 -10.000000
v 5.000000 -5.000000 -11.000000
v 5.000000 -6.000000 -11.000000
v 5.000000 0.000000 -11.000000
v 3.000000 -5.000000 -11.000000
v 2.500000 0.000000 -11.000000
v 3.000000 -6.000000 -11.000000
v 4.000001 -10.000000 21.000000
v 3.000001 -10.000000 20.000000
v 3.000001 -10.000000 15.000000
v 3.000000 -5.000000 10.000000
v 5.000001 -11.000000 20.000000
v 4.000001 -11.000000 21.000000
v 3.000001 -11.000000 20.000000
v 3.000001 -11.000000 15.000000
v 5.000000 -11.000000 15.000000
v 5.000000 -6.000000 10.000000
v 5.000000 0.000000 10.000000
v 2.500000 0.000000 10.000000
v 3.000000 -6.000000 10.000000
v 5.000000 -5.000000 9.000000
v 3.000000 -5.000000 9.000000
v 2.500000 0.000000 9.000000
v 5.000000 -6.000000 9.000000
v 5.000000 0.000000 9.000000
v 3.000000 -6.000000 9.000000
v 5.000000 3.000000 -0.000000
v 5.000000 3.000000 -10.000000
v -0.000000 3.000000 -10.000000
v 0.000000 3.000000 10.000000
v 2.500000 3.000000 -10.000000
v 5.000000 3.000000 10.000000
v 2.500000 3.000000 10.000000
v 0.999999 0.000000 -30.000000
v -0.000000 1.000000 -10.000000
v -0.000001 1.000000 -30.000000
v 2.500000 1.000000 -10.000000
v 0.999999 1.000000 -30.000000
v 2.000001 15.000000 15.000000
v 1.000001 10.000000 20.000000
v 0.000001 14.000000 15.000000
v 0.000001 9.000000 20.000000
v 2.000001 14.000000 15.000000
v 1.000001 9.000000 20.000000
v 1.450767 15.000000 15.000000
v 1.750001 16.000000 15.000000
v 2.000001 15.000000 15.500000
v 1.450767 15.000000 15.500000
v 1.750001 16.000000 15.500000
v 5.000000 3.000000 5.000000
v 0.000000 3.000000 0.000000
v 0.000000 3.000000 5.000000
v 7.660672 7.123180 2.558999
v 7.660672 7.123180 4.203651
v 6.016020 7.123180 2.558999
v 6.016020 7.123180 4.203651
v 8.463096 9.350435 5.228853
v 6.818443 9.350435 5.228853
v 7.417857 12.056796 4.382380
v 5.773205 12.056796 2.737728
v 5.773205 12.056796 4.382380
v 2.959930 16.440634 4.904461
v 8.463096 9.350435 3.584200
v 6.818443 9.350435 3.584201
v 7.417857 12.056796 2.737728
v 4.469208 10.766398 -4.748336
v 2.679609 13.193042 -3.346830
v 5.029981 8.534315 -4.519561
v 4.207654 8.534315 -4.519561
v 4.488317 9.348751 -4.354210
v 3.665990 9.348751 -4.354210
v 3.646881 10.766398 -4.748336
v -5.000000 -10.000000 15.000000
v -4.999999 -10.000000 20.000000
v -4.999999 -5.000000 10.000000
v -5.000000 0.000000 0.000000
v -5.000000 -10.000000 -5.000000
v -5.000000 -10.000000 0.000000
v -4.000000 -10.000000 1.000000
v -3.000000 -10.000000 0.000000
v -3.000000 -10.000000 -5.000000
v -3.000000 -5.000000 -10.000000
v -5.000000 -11.000000 0.000000
v -4.000000 -11.000000 1.000000
v -3.000000 -11.000000 0.000000
v -3.000000 -11.000000 -5.000000
v -5.000000 -11.000000 -5.000000
v -3.000000 -6.000000 -10.000000
v -5.000000 0.000000 -10.000000
v -5.000000 -5.000000 -10.000000
v -2.500000 0.000000 -10.000000
v -5.000000 -6.000000 -10.000000
v -5.000000 -5.000000 -11.000000
v -5.000000 -6.000000 -11.000000
v -5.000000 0.000000 -11.000000
v -3.000000 -5.000000 -11.000000
v -2.500000 0.000000 -11.000000
v -3.000000 -6.000000 -11.000000
v -3.999999 -10.000000 21.000000
v -2.999999 -10.000000 20.000000
v -2.999999 -10.000000 15.000000
v -3.000000 -5.000000 10.000000
v -4.999999 -11.000000 20.000000
v -3.999999 -11.000000 21.000000
v -2.999999 -11.000000 20.000000
v -2.999999 -11.000000 15.000000
v -5.000000 -11.000000 15.000000
v -4.999999 -6.000000 10.000000
v -5.000000 0.000000 10.000000
v -2.500000 0.000000 10.000000
v -3.000000 -6.000000 10.000000
v -4.999999 -5.000000 9.000000
v -3.000000 -5.000000 9.000000
v -2.500000 0.000000 9.000000
v -4.999999 -6.000000 9.000000
v -5.000000 0.000000 9.000000
v -3.000000 -6.000000 9.000000
v -5.000000 3.000000 0.000000
v -5.000000 3.000000 -10.000000
v -2.500000 3.000000 -10.000000
v -5.000000 3.000000 10.000000
v -2.500000 3.000000 10.000000
v -1.000001 0.000000 -30.000000
v -2.500000 1.000000 -10.000000
v -1.000001 1.000000 -30.000000
v -1.999999 15.000000 15.000000
v -0.999999 10.000000 20.000000
v -1.999999 14.000000 15.000000
v -0.999999 9.000000 20.000000
v -1.450765 15.000000 15.000000
v -1.749999 16.000000 15.000000
v -1.999999 15.000000 15.500000
v -1.450765 15.000000 15.500000
v -1.749999 16.000000 15.500000
v -5.000000 3.000000 5.000000
v -7.660672 7.123180 2.558999
v -7.660672 7.123180 4.203652
v -6.016020 7.123180 2.558999
v -6.016020 7.123180 4.203652
v -8.463096 9.350435 5.228854
v -6.818443 9.350435 5.228854
v -7.417857 12.056796 4.382381
v -5.773205 12.056796 2.737728
v -5.773205 12.056796 4.382381
v -2.959929 16.440634 4.904461
v -8.463096 9.350435 3.584201
v -6.818443 9.350435 3.584201
v -7.417857 12.056796 2.737728
v -4.469208 10.766398 -4.748336
v -2.679610 13.193042 -3.346830
v -5.029981 8.534315 -4.519561
v -4.207654 8.534315 -4.519561
v -4.488317 9.348751 -4.354210
v -3.665990 9.348751 -4.354210
v -3.646882 10.766398 -4.748336
vn 0.7071 -0.0000 0.7071
vn -0.0000 -0.0000 -1.0000
vn -0.7071 -0.0000 0.7071
vn 1.0000 -0.0000 -0.0000
vn -1.0000 -0.0000 -0.0000
vn -0.9950 -0.0995 -0.0000
vn -0.0000 1.0000 -0.0000
vn -0.0000 -1.0000 -0.0000
vn -0.0000 -0.0000 1.0000
vn 0.9972 -0.0000 -0.0748
vn 0.9950 -0.0000 0.0995
vn 0.9806 -0.0000 0.1961
vn 0.9701 0.2425 -0.0000
vn -0.9580 0.2867 -0.0000
vn -0.0000 0.7071 0.7071
vn -0.0000 -0.7071 -0.7071
vn -0.0000 0.3846 -0.9231
vn -0.0000 -0.3363 0.9417
vn -0.1562 -0.3123 0.9370
vn -0.5653 0.8249 -0.0000
vn 0.8402 -0.5422 -0.0000
vn -0.0000 0.1896 0.9819
vn -0.0000 0.5273 -0.8497
vn -0.0000 -0.4181 0.9084
vn 0.9408 -0.3389 -0.0000
vn -0.9408 0.3389 -0.0000
vn 0.9328 0.3603 -0.0000
vn -0.9328 -0.3603 -0.0000
vn -0.0000 0.2985 0.9544
vn -0.0000 0.4431 -0.8965
vn -0.8416 -0.5401 -0.0000
vn -0.0000 -0.1183 0.9930
vn 0.7012 0.7130 -0.0000
vn -0.0000 0.4181 -0.9084
vn -0.0000 -0.2985 -0.9544
vn -0.7679 -0.5746 0.2831
vn 0.9035 0.1085 -0.4146
vn -0.9499 -0.0399 0.3100
vn 0.6015 0.7262 -0.3328
vn -0.9330 -0.1412 0.3311
vn 0.9153 0.0763 -0.3955
vn -0.0000 -0.9807 -0.1955
vn -0.0000 0.5001 -0.8660
vn -0.0000 -0.2679 -0.9635
vn -0.0000 0.1990 -0.9800
vn 0.9950 -0.0995 -0.0000
vn -0.9972 -0.0000 -0.0748
vn -0.9950 -0.0000 0.0995
vn -0.9806 -0.0000 0.1961
vn -0.9701 0.2425 -0.0000
vn 0.9580 0.2867 -0.0000
vn 0.1562 -0.3123 0.9370
vn 0.5653 0.8249 -0.0000
vn -0.8402 -0.5422 -0.0000
vn -0.9408 -0.3389 -0.0000
vn 0.9408 0.3389 -0.0000
vn -0.9328 0.3603 -0.0000
vn 0.9328 -0.3603 -0.0000
vn 0.8416 -0.5401 -0.0000
vn -0.7012 0.7130 -0.0000
vn 0.7679 -0.5746 0.2831
vn -0.9035 0.1085 -0.4146
vn 0.9499 -0.0399 0.3100
vn -0.6015 0.7262 -0.3328
vn 0.9330 -0.1412 0.3311
vn -0.9153 0.0763 -0.3955
vt 0.000000 0.000000
vt 0.000000 0.000000
vt 0.000000 0.000000
vt 0.000000 0.000000
vt 0.000000 0.000000
vt 0.000000 0.000000
vt 0.000000 0.000000
vt 0.000000 0.000000
vt 0.000000 0.000000
vt 0.000000 0.000000
vt 0.000000 0.000000
vt 0.000000 0.000000
vt 0.000000 0.000000
vt 0.000000 0.000000
vt 0.000000 0.000000
vt 0.000000 0.000000
vt 0.000000 0.000000
vt 0.000000 0.000000
vt 0.000000 0.000000
vt 0.000000 0.000000
vt 0.000000 0.000000
vt 0.000000 0.000000
vt 0.000000 0.000000
vt 0.000000 0.000000
vt 0.000000 0.000000
vt 0.000000 0.000000
vt 0.000000 0.000000
vt 0.000000 0.000000
vt 0.000000 0.000000
vt 0.000000 0.000000
vt 0.000000 0.000000
vt 0.000000 0.000000
vt 0.000000 0.000000
vt 0.000000 0.000000
vt 0.000000 0.000000
vt 0.000000 0.000000
vt 0.000000 0.000000
vt 0.000000 0.000000
vt 0.000000 0.000000
vt 0.000000 0.000000
vt 0.000000 0.000000
vt 0.000000 0.000000
vt 0.000000 0.000000
vt 0.000000 0.000000
vt 0.000000 0.000000
vt 0.000000 0.000000
vt 0.000000 0.000000
vt 0.000000 0.000000
vt 0.000000 0.000000
vt 0.000000 0.000000
vt 0.000000 0.000000
vt 0.000000 0.000000
vt 0.000000 0.000000
vt 0.000000 0.000000
vt 0.000000 0.000000
vt 0.000000 0.000000
vt 0.000000 0.000000
vt 0.000000 0.000000
vt 0.000000 0.000000
vt 0.000000 0.000000
vt 0.000000 0.000000
vt 0.000000 0.000000
vt 0.000000 0.000000
vt 0.000000 0.000000
vt 0.000000 0.000000
vt 0.000000 0.000000
vt 0.000000 0.000000
vt 0.000000 0.000000
vt 0.000000 0.000000
vt 0.000000 0.000000
vt 0.000000 0.000000
vt 0.000000 0.000000
vt 0.000000 0.000000
vt 0.000000 0.000000
vt 0.000000 0.000000
vt 0.000000 0.000000
vt 0.000000 0.000000
vt 0.000000 0.000000
vt 0.000000 0.000000
vt 0.000000 0.000000
vt 0.000000 0.000000
vt 0.000000 0.000000
vt 0.000000 0.000000
vt 0.000000 0.000000
vt 0.000000 0.000000
vt 0.000000 0.000000
vt 0.000000 0.000000
vt 0.000000 0.000000
vt 0.000000 0.000000
vt 0.000000 0.000000
vt 0.000000 0.000000
vt 0.000000 0.000000
vt 0.000000 0.000000
vt 0.000000 0.000000
vt 0.000000 0.000000
vt 0.000000 0.000000
vt 0.000000 0.000000
vt 0.000000 0.000000
vt 0.000000 0.000000
vt 0.000000 0.000000
vt 0.000000 0.000000
vt 0.000000 0.000000
vt 0.000000 0.000000
vt 0.000000 0.000000
vt 0.000000 0.000000
vt 0.000000 0.000000
vt 0.000000 0.000000
vt 0.000000 0.000000
vt 0.000000 0.000000
vt 0.000000 0.000000
vt 0.000000 0.000000
vt 0.000000 0.000000
vt 0.000000 0.000000
vt 0.000000 0.000000
vt 0.000000 0.000000
vt 0.000000 0.000000
vt 0.000000 0.000000
vt 0.000000 0.000000
vt 0.000000 0.000000
vt 0.000000 0.000000
vt 0.000000 0.000000
vt 0.000000 0.000000
vt 0.000000 0.000000
vt 0.000000 0.000000
vt 0.000000 0.000000
vt 0.000000 0.000000
vt 0.000000 0.000000
vt 0.000000 0.000000
vt 0.000000 0.000000
vt 0.000000 0.000000
vt 0.000000 0.000000
vt 0.000000 0.000000
vt 0.000000 0.000000
vt 0.000000 0.000000
vt 0.000000 0.000000
vt 0.000000 0.000000
vt 0.000000 0.000000
vt 0.000000 0.000000
vt 0.000000 0.000000
vt 0.000000 0.000000
vt 0.000000 0.000000
vt 0.000000 0.000000
vt 0.000000 0.000000
vt 0.000000 0.000000
vt 0.000000 0.000000
vt 0.000000 0.000000
vt 0.000000 0.000000
vt 0.000000 0.000000
vt 0.000000 0.000000
vt 0.000000 0.000000
vt 0.000000 0.000000
vt 0.000000 0.000000
vt 0.000000 0.000000
vt 0.000000 0.000000
vt 0.000000 0.000000
vt 0.000000 0.000000
vt 0.000000 0.000000
vt 0.000000 0.000000
vt 0.000000 0.000000
vt 0.000000 0.000000
vt 0.000000 0.000000
vt 0.000000 0.000000
vt 0.000000 0.000000
vt 0.000000 0.000000
vt 0.000000 0.000000
vt 0.000000 0.000000
vt 0.000000 0.000000
vt 0.000000 0.000000
vt 0.000000 0.000000
vt 0.000000 0.000000
vt 0.000000 0.000000
vt 0.000000 0.000000
vt 0.000000 0.000000
vt 0.000000 0.000000
vt 0.000000 0.000000
vt 0.000000 0.000000
vt 0.000000 0.000000
vt 0.000000 0.000000
vt 0.000000 0.000000
s 0
f 12/12/1 16/16/1 6/6/1
f 20/20/2 14/14/2 5/5/2
f 13/13/3 17/17/3 12/12/3
f 6/6/4 20/20/4 5/5/4
f 14/14/5 18/18/5 13/13/5
f 14/14/5 21/21/5 19/19/5
f 5/5/4 25/25/4 23/23/4
f 25/25/2 15/15/2 23/23/2
f 15/15/5 31/31/5 21/21/5
f 30/30/6 15/15/6 24/24/6
f 25/25/4 26/26/4 23/23/4
f 28/28/7 24/24/7 22/22/7
f 26/26/4 22/22/4 23/23/4
f 21/21/8 27/27/8 25/25/8
f 36/36/4 1/1/4 2/2/4
f 39/39/5 33/33/5 34/34/5
f 37/37/1 2/2/1 32/32/1
f 38/38/3 32/32/3 33/33/3
f 34/34/5 44/44/5 39/39/5
f 1/1/4 41/41/4 3/3/4
f 35/35/9 41/41/9 3/3/9
f 3/3/4 49/49/4 42/42/4
f 41/41/4 45/45/4 3/3/4
f 49/49/7 43/43/7 42/42/7
f 35/35/5 50/50/5 44/44/5
f 44/44/8 48/48/8 41/41/8
f 47/47/6 35/35/6 43/43/6
f 54/54/2 43/43/2 9/9/2
f 53/53/2 24/24/2 7/7/2
f 55/55/2 22/22/2 24/24/2
f 52/52/4 4/4/4 22/22/4
f 54/54/5 7/7/5 9/9/5
f 42/42/9 57/57/9 43/43/9
f 51/51/4 42/42/4 4/4/4
f 58/58/10 61/61/10 24/24/10
f 60/60/2 58/58/2 8/8/2
f 59/59/5 8/8/5 7/7/5
f 43/43/11 57/57/11 63/63/11
f 54/54/5 9/9/5 10/10/5
f 66/66/9 64/64/9 11/11/9
f 69/69/2 67/67/2 65/65/2
f 65/65/5 11/11/5 10/10/5
f 64/64/12 67/67/12 63/63/12
f 43/43/11 63/63/11 67/67/11
f 70/70/13 71/71/13 63/63/13
f 72/72/14 70/70/14 69/69/14
f 71/71/8 69/69/8 63/63/8
f 32/32/7 2/2/7 33/33/7
f 33/33/7 2/2/7 34/34/7
f 2/2/7 1/1/7 34/34/7
f 35/35/15 34/34/15 3/3/15
f 3/3/15 34/34/15 1/1/15
f 35/35/9 3/3/9 43/43/9
f 42/42/9 43/43/9 3/3/9
f 49/49/2 48/48/2 50/50/2
f 47/47/2 49/49/2 50/50/2
f 40/40/16 39/39/16 41/41/16
f 44/44/16 41/41/16 39/39/16
f 39/39/8 40/40/8 38/38/8
f 40/40/8 36/36/8 38/38/8
f 37/37/8 38/38/8 36/36/8
f 9/9/8 22/22/8 42/42/8
f 9/9/8 7/7/8 22/22/8
f 30/30/2 28/28/2 27/27/2
f 27/27/2 31/31/2 30/30/2
f 25/25/16 20/20/16 19/19/16
f 21/21/16 25/25/16 19/19/16
f 12/12/7 6/6/7 13/13/7
f 13/13/7 6/6/7 14/14/7
f 5/5/7 14/14/7 6/6/7
f 54/54/7 56/56/7 52/52/7
f 54/54/7 52/52/7 53/53/7 75/75/7 76/76/7
f 10/10/17 57/57/17 54/54/17
f 57/57/17 10/10/17 63/63/17
f 62/62/7 59/59/7 61/61/7
f 60/60/7 59/59/7 62/62/7
f 58/58/8 24/24/8 8/8/8
f 8/8/8 24/24/8 7/7/8
f 66/66/16 65/65/16 68/68/16
f 67/67/16 68/68/16 65/65/16
f 67/67/18 9/9/18 43/43/18
f 10/10/19 9/9/19 67/67/19
f 11/11/15 64/64/15 10/10/15
f 64/64/15 63/63/15 10/10/15
f 71/71/9 73/73/9 72/72/9
f 70/70/2 63/63/2 69/69/2
f 15/15/15 14/14/15 23/23/15
f 23/23/15 14/14/15 5/5/15
f 22/22/9 15/15/9 23/23/9
f 24/24/9 15/15/9 22/22/9
f 12/12/1 17/17/1 16/16/1
f 20/20/2 19/19/2 14/14/2
f 13/13/3 18/18/3 17/17/3
f 6/6/4 16/16/4 20/20/4
f 14/14/5 19/19/5 18/18/5
f 14/14/5 15/15/5 21/21/5
f 5/5/4 20/20/4 25/25/4
f 25/25/2 21/21/2 15/15/2
f 15/15/5 29/29/5 31/31/5
f 30/30/6 29/29/6 15/15/6
f 25/25/4 27/27/4 26/26/4
f 28/28/7 30/30/7 24/24/7
f 26/26/4 28/28/4 22/22/4
f 21/21/8 31/31/8 27/27/8
f 36/36/4 40/40/4 1/1/4
f 39/39/5 38/38/5 33/33/5
f 37/37/1 36/36/1 2/2/1
f 38/38/3 37/37/3 32/32/3
f 34/34/5 35/35/5 44/44/5
f 1/1/4 40/40/4 41/41/4
f 35/35/9 44/44/9 41/41/9
f 3/3/4 45/45/4 49/49/4
f 41/41/4 48/48/4 45/45/4
f 49/49/7 47/47/7 43/43/7
f 35/35/5 46/46/5 50/50/5
f 44/44/8 50/50/8 48/48/8
f 47/47/6 46/46/6 35/35/6
f 54/54/2 57/57/2 43/43/2
f 53/53/2 55/55/2 24/24/2
f 55/55/2 52/52/2 22/22/2
f 52/52/4 51/51/4 4/4/4
f 54/54/5 76/76/5 75/75/5 53/53/5 7/7/5
f 42/42/9 56/56/9 57/57/9
f 51/51/4 74/74/4 56/56/4 42/42/4
f 58/58/10 62/62/10 61/61/10
f 60/60/2 62/62/2 58/58/2
f 59/59/5 60/60/5 8/8/5
f 66/66/9 68/68/9 64/64/9
f 65/65/2 10/10/2 69/69/2
f 69/69/2 63/63/2 67/67/2
f 65/65/5 66/66/5 11/11/5
f 64/64/12 68/68/12 67/67/12
f 70/70/13 73/73/13 71/71/13
f 72/72/14 73/73/14 70/70/14
f 71/71/8 72/72/8 69/69/8
f 17/17/8 18/18/8 16/16/8
f 18/18/8 19/19/8 16/16/8
f 19/19/8 20/20/8 16/16/8
f 75/75/20 76/76/20 80/80/20 79/79/20
f 74/74/21 51/51/21 77/77/21 78/78/21
f 74/74/22 78/78/22 80/80/22 76/76/22
f 51/51/23 75/75/23 79/79/23 77/77/23
f 78/78/24 81/81/24 82/82/24 80/80/24
f 78/78/25 77/77/25 87/87/25 81/81/25
f 79/79/26 80/80/26 82/82/26 88/88/26
f 81/81/27 87/87/27 89/89/27 83/83/27
f 88/88/28 82/82/28 85/85/28 84/84/28
f 81/81/29 83/83/29 85/85/29 82/82/29
f 89/89/30 84/84/30 86/86/30
f 84/84/31 85/85/31 86/86/31
f 83/83/32 86/86/32 85/85/32
f 83/83/33 89/89/33 86/86/33
f 77/77/34 79/79/34 88/88/34 87/87/34
f 87/87/35 88/88/35 84/84/35 89/89/35
f 84/84/36 86/86/36 91/91/36 96/96/36
f 89/89/37 87/87/37 94/94/37 90/90/37
f 79/79/38 88/88/38 95/95/38 93/93/38
f 86/86/39 89/89/39 90/90/39 91/91/39
f 88/88/40 84/84/40 96/96/40 95/95/40
f 87/87/41 77/77/41 92/92/41 94/94/41
f 77/77/42 79/79/42 93/93/42 92/92/42
f 96/96/43 91/91/43 90/90/43
f 90/90/44 94/94/44 96/96/44
f 96/96/44 94/94/44 95/95/44
f 94/94/45 92/92/45 95/95/45
f 93/93/45 95/95/45 92/92/45
f 103/103/3 102/102/3 107/107/3
f 111/111/2 101/101/2 105/105/2
f 104/104/1 103/103/1 108/108/1
f 102/102/5 101/101/5 111/111/5
f 105/105/4 104/104/4 109/109/4
f 105/105/4 110/110/4 112/112/4
f 101/101/5 114/114/5 116/116/5
f 116/116/2 114/114/2 106/106/2
f 106/106/4 112/112/4 122/122/4
f 121/121/46 115/115/46 106/106/46
f 116/116/5 114/114/5 117/117/5
f 119/119/7 113/113/7 115/115/7
f 117/117/5 114/114/5 113/113/5
f 112/112/8 116/116/8 118/118/8
f 127/127/5 98/98/5 97/97/5
f 130/130/4 125/125/4 124/124/4
f 128/128/3 123/123/3 98/98/3
f 129/129/1 124/124/1 123/123/1
f 125/125/4 130/130/4 135/135/4
f 97/97/5 99/99/5 132/132/5
f 126/126/9 99/99/9 132/132/9
f 99/99/5 133/133/5 140/140/5
f 132/132/5 99/99/5 136/136/5
f 140/140/7 133/133/7 134/134/7
f 126/126/4 135/135/4 141/141/4
f 135/135/8 132/132/8 139/139/8
f 138/138/46 134/134/46 126/126/46
f 54/54/2 9/9/2 134/134/2
f 53/53/2 7/7/2 115/115/2
f 144/144/2 115/115/2 113/113/2
f 143/143/5 113/113/5 100/100/5
f 133/133/9 134/134/9 146/146/9
f 142/142/5 100/100/5 133/133/5
f 147/147/47 115/115/47 148/148/47
f 60/60/2 8/8/2 147/147/2
f 134/134/48 150/150/48 146/146/48
f 66/66/9 11/11/9 151/151/9
f 154/154/2 65/65/2 152/152/2
f 151/151/49 150/150/49 152/152/49
f 134/134/48 152/152/48 150/150/48
f 155/155/50 150/150/50 156/156/50
f 157/157/51 154/154/51 155/155/51
f 156/156/8 150/150/8 154/154/8
f 123/123/7 124/124/7 98/98/7
f 124/124/7 125/125/7 98/98/7
f 98/98/7 125/125/7 97/97/7
f 126/126/15 99/99/15 125/125/15
f 99/99/15 97/97/15 125/125/15
f 126/126/9 134/134/9 99/99/9
f 133/133/9 99/99/9 134/134/9
f 140/140/2 141/141/2 139/139/2
f 138/138/2 141/141/2 140/140/2
f 131/131/16 132/132/16 130/130/16
f 135/135/16 130/130/16 132/132/16
f 130/130/8 129/129/8 131/131/8
f 131/131/8 129/129/8 127/127/8
f 128/128/8 127/127/8 129/129/8
f 9/9/8 133/133/8 113/113/8
f 9/9/8 113/113/8 7/7/8
f 121/121/2 118/118/2 119/119/2
f 118/118/2 121/121/2 122/122/2
f 116/116/16 110/110/16 111/111/16
f 112/112/16 110/110/16 116/116/16
f 103/103/7 104/104/7 102/102/7
f 104/104/7 105/105/7 102/102/7
f 101/101/7 102/102/7 105/105/7
f 54/54/7 143/143/7 145/145/7
f 54/54/7 76/76/7 75/75/7 53/53/7 143/143/7
f 10/10/17 54/54/17 146/146/17
f 146/146/17 150/150/17 10/10/17
f 149/149/7 148/148/7 59/59/7
f 60/60/7 149/149/7 59/59/7
f 147/147/8 8/8/8 115/115/8
f 8/8/8 7/7/8 115/115/8
f 66/66/16 153/153/16 65/65/16
f 152/152/16 65/65/16 153/153/16
f 152/152/18 134/134/18 9/9/18
f 10/10/52 152/152/52 9/9/52
f 11/11/15 10/10/15 151/151/15
f 151/151/15 10/10/15 150/150/15
f 156/156/9 157/157/9 158/158/9
f 155/155/2 154/154/2 150/150/2
f 106/106/15 114/114/15 105/105/15
f 114/114/15 101/101/15 105/105/15
f 113/113/9 114/114/9 106/106/9
f 115/115/9 113/113/9 106/106/9
f 103/103/3 107/107/3 108/108/3
f 111/111/2 105/105/2 110/110/2
f 104/104/1 108/108/1 109/109/1
f 102/102/5 111/111/5 107/107/5
f 105/105/4 109/109/4 110/110/4
f 105/105/4 112/112/4 106/106/4
f 101/101/5 116/116/5 111/111/5
f 116/116/2 106/106/2 112/112/2
f 106/106/4 122/122/4 120/120/4
f 121/121/46 106/106/46 120/120/46
f 116/116/5 117/117/5 118/118/5
f 119/119/7 115/115/7 121/121/7
f 117/117/5 113/113/5 119/119/5
f 112/112/8 118/118/8 122/122/8
f 127/127/5 97/97/5 131/131/5
f 130/130/4 124/124/4 129/129/4
f 128/128/3 98/98/3 127/127/3
f 129/129/1 123/123/1 128/128/1
f 125/125/4 135/135/4 126/126/4
f 97/97/5 132/132/5 131/131/5
f 126/126/9 132/132/9 135/135/9
f 99/99/5 140/140/5 136/136/5
f 132/132/5 136/136/5 139/139/5
f 140/140/7 134/134/7 138/138/7
f 126/126/4 141/141/4 137/137/4
f 135/135/8 139/139/8 141/141/8
f 138/138/46 126/126/46 137/137/46
f 54/54/2 134/134/2 146/146/2
f 53/53/2 115/115/2 144/144/2
f 144/144/2 113/113/2 143/143/2
f 143/143/5 100/100/5 142/142/5
f 133/133/9 146/146/9 145/145/9
f 142/142/5 133/133/5 145/145/5 159/159/5
f 147/147/47 148/148/47 149/149/47
f 60/60/2 147/147/2 149/149/2
f 66/66/9 151/151/9 153/153/9
f 65/65/2 154/154/2 10/10/2
f 154/154/2 152/152/2 150/150/2
f 151/151/49 152/152/49 153/153/49
f 155/155/50 156/156/50 158/158/50
f 157/157/51 155/155/51 158/158/51
f 156/156/8 154/154/8 157/157/8
f 108/108/8 107/107/8 109/109/8
f 109/109/8 107/107/8 110/110/8
f 110/110/8 107/107/8 111/111/8
f 75/75/53 162/162/53 163/163/53 76/76/53
f 159/159/54 161/161/54 160/160/54 142/142/54
f 159/159/22 76/76/22 163/163/22 161/161/22
f 142/142/23 160/160/23 162/162/23 75/75/23
f 161/161/24 163/163/24 165/165/24 164/164/24
f 161/161/55 164/164/55 170/170/55 160/160/55
f 162/162/56 171/171/56 165/165/56 163/163/56
f 164/164/57 166/166/57 172/172/57 170/170/57
f 171/171/58 167/167/58 168/168/58 165/165/58
f 164/164/29 165/165/29 168/168/29 166/166/29
f 172/172/30 169/169/30 167/167/30
f 167/167/59 169/169/59 168/168/59
f 166/166/32 168/168/32 169/169/32
f 166/166/60 169/169/60 172/172/60
f 160/160/34 170/170/34 171/171/34 162/162/34
f 170/170/35 172/172/35 167/167/35 171/171/35
f 167/167/61 179/179/61 174/174/61 169/169/61
f 172/172/62 173/173/62 177/177/62 170/170/62
f 162/162/63 176/176/63 178/178/63 171/171/63
f 169/169/64 174/174/64 173/173/64 172/172/64
f 171/171/65 178/178/65 179/179/65 167/167/65
f 170/170/66 177/177/66 175/175/66 160/160/66
f 160/160/42 175/175/42 176/176/42 162/162/42
f 179/179/43 173/173/43 174/174/43
f 173/173/44 179/179/44 177/177/44
f 179/179/44 178/178/44 177/177/44
f 177/177/45 178/178/45 175/175/45
f 176/176/45 175/175/45 178/178/45
