# Blender 3.3.1
# www.blender.org
o L123_lightstone
v 50.000000 50.000000 250.000000
v 100.000000 50.000000 300.000000
v 50.000000 50.000000 350.000000
v 100.000000 50.000000 305.000000
v 31.064739 5.000000 413.230103
v 95.000000 50.000000 295.000000
v 95.000000 50.000000 305.000000
v 9.199928 5.000000 422.342072
v 7.297672 5.000000 412.765289
v 100.000000 50.000000 295.000000
v -24.126266 17.821285 394.454315
v -14.751190 17.821285 390.829346
v 100.000000 55.000000 300.000000
v 100.000000 55.000000 305.000000
v 100.000000 55.000000 295.000000
v 95.000000 55.000000 295.000000
v 95.000000 55.000000 305.000000
v 100.000000 45.000000 300.000000
v 100.000000 45.000000 305.000000
v 100.000000 45.000000 295.000000
v 95.000000 45.000000 295.000000
v 95.000000 45.000000 305.000000
v 47.206779 50.000000 249.478882
v 54.163342 50.000000 249.248398
v -18.457489 17.821285 385.434631
v 53.647110 50.000000 251.299347
v 50.000000 55.000000 250.000000
v 47.206779 55.000000 249.478882
v 54.163342 55.000000 249.248398
v 46.456139 55.000000 252.118988
v 53.647110 55.000000 251.299347
v 50.000000 45.000000 250.000000
v 47.206779 45.000000 249.478882
v 54.163342 45.000000 249.248398
v 46.456139 45.000000 252.118988
v 53.647110 45.000000 251.299347
v -18.457489 5.000000 385.434631
v -14.751190 5.000000 390.829346
v 46.456139 50.000000 252.118988
v 56.629871 50.000000 349.211761
v -24.126266 5.000000 394.454315
v 0.000000 15.000000 50.000000
v 48.745312 50.000000 344.657959
v 50.000000 55.000000 350.000000
v -8.000000 15.000000 47.000000
v 48.745312 55.000000 344.657959
v 56.629871 55.000000 349.211761
v -3.717041 15.000000 54.976749
v 50.000000 45.000000 350.000000
v 56.629871 45.000000 349.211761
v 48.745312 45.000000 344.657959
v -3.717041 5.000000 54.976749
v -8.000000 5.000000 47.000000
v 0.000000 5.000000 50.000000
v 31.064739 22.087965 413.230103
v 9.199928 22.087965 422.342072
v 7.297672 22.087965 412.765289
v -61.301849 5.000000 393.980377
v -60.001663 5.000000 403.265076
v -42.170479 5.000000 391.776093
v -61.301849 19.891638 393.980377
v -60.001663 19.891638 403.265076
v -42.170479 19.891638 391.776093
v -25.000000 10.000000 100.000000
v -50.000000 10.000000 100.000000
v -25.000000 12.000000 100.000000
v -50.000000 12.000000 100.000000
v -25.000000 10.000000 115.000000
v -50.000000 10.000000 115.000000
v -25.000000 12.000000 115.000000
v -50.000000 12.000000 115.000000
v -10.000000 12.000000 105.000000
v -10.000000 15.000000 105.000000
v -25.000000 15.000000 105.000000
v -25.000000 12.000000 116.092163
v -10.000000 12.000000 116.092163
v -10.000000 15.000000 116.092163
v -25.000000 15.000000 116.092163
v -25.000000 12.000000 105.000000
v -10.000000 12.000000 104.000000
v -10.000000 15.000000 104.000000
v -25.000000 15.000000 104.000000
v -25.000000 12.000000 104.000000
v -10.000000 17.000000 105.000000
v -25.000000 17.000000 105.000000
v -25.000000 17.000000 104.000000
v -9.000000 12.000000 105.000000
v -9.000000 15.000000 105.000000
v -9.000000 12.000000 116.092163
v -9.000000 15.000000 116.092163
v -9.000000 12.000000 104.000000
v -9.000000 15.000000 104.000000
v -10.000000 17.000000 116.092163
v -10.000000 17.000000 104.000000
v -9.000000 17.000000 105.000000
v -9.000000 17.000000 116.092163
v -9.000000 17.000000 104.000000
v -25.000000 10.000000 116.000000
v -50.000000 10.000000 116.000000
v -25.000000 12.000000 116.000000
v -50.000000 12.000000 116.000000
v -25.000000 18.000000 115.000000
v -50.000000 18.000000 115.000000
v -25.000000 18.000000 116.000000
v -50.000000 18.000000 116.000000
v 15.000000 20.000000 145.000000
v 15.000000 20.000000 155.000000
v 5.000000 20.000000 155.000000
v 5.000000 20.000000 145.000000
v 15.000000 30.000000 145.000000
v 15.000000 30.000000 155.000000
v 5.000000 30.000000 155.000000
v 5.000000 30.000000 145.000000
v 4.254879 42.027985 145.000000
v 4.254879 42.027985 155.000000
v -5.745121 42.027985 155.000000
v -5.745121 42.027985 145.000000
vn 0.8242 -0.0000 -0.5663
vn 0.3606 -0.0000 0.9327
vn -0.0000 1.0000 -0.0000
vn 0.8012 -0.0000 0.5984
vn -0.8810 -0.0000 0.4731
vn -0.0000 -0.0000 1.0000
vn 1.0000 -0.0000 -0.0000
vn -1.0000 -0.0000 -0.0000
vn -0.0000 -0.0000 -1.0000
vn 0.1132 -0.0000 0.9936
vn -0.9619 -0.0000 -0.2735
vn 0.1834 -0.0000 -0.9830
vn 0.9698 -0.0000 0.2441
vn -0.1777 -0.0000 -0.9841
vn -0.0000 -1.0000 -0.0000
vn 0.5132 -0.0000 0.8583
vn 0.3511 -0.0000 -0.9363
vn 0.5001 -0.0000 -0.8659
vn -0.9735 -0.0000 0.2286
vn 0.1181 -0.0000 0.9930
vn -0.8467 -0.0000 -0.5321
vn -0.9808 -0.0000 0.1948
vn 0.3847 -0.0000 0.9231
vn 0.0196 -0.0000 -0.9998
vn -0.9903 -0.0000 0.1387
vn 0.5416 -0.0000 0.8406
vn -0.1145 -0.0000 -0.9934
vn 0.7458 0.6662 -0.0000
vn -0.7458 -0.6662 -0.0000
vt 0.000000 0.000000
vt 0.000000 0.000000
vt 0.000000 0.000000
vt 0.000000 0.000000
vt 0.000000 0.000000
vt 0.000000 0.000000
vt 0.000000 0.000000
vt 0.000000 0.000000
vt 0.000000 0.000000
vt 0.000000 0.000000
vt 0.000000 0.000000
vt 0.000000 0.000000
vt 0.000000 0.000000
vt 0.000000 0.000000
vt 0.000000 0.000000
vt 0.000000 0.000000
vt 0.000000 0.000000
vt 0.000000 0.000000
vt 0.000000 0.000000
vt 0.000000 0.000000
vt 0.000000 0.000000
vt 0.000000 0.000000
vt 0.000000 0.000000
vt 0.000000 0.000000
vt 0.000000 0.000000
vt 0.000000 0.000000
vt 0.000000 0.000000
vt 0.000000 0.000000
vt 0.000000 0.000000
vt 0.000000 0.000000
vt 0.000000 0.000000
vt 0.000000 0.000000
vt 0.000000 0.000000
vt 0.000000 0.000000
vt 0.000000 0.000000
vt 0.000000 0.000000
vt 0.000000 0.000000
vt 0.000000 0.000000
vt 0.000000 0.000000
vt 0.000000 0.000000
vt 0.000000 0.000000
vt 0.000000 0.000000
vt 0.000000 0.000000
vt 0.000000 0.000000
vt 0.000000 0.000000
vt 0.000000 0.000000
vt 0.000000 0.000000
vt 0.000000 0.000000
vt 0.000000 0.000000
vt 0.000000 0.000000
vt 0.000000 0.000000
vt 0.000000 0.000000
vt 0.000000 0.000000
vt 0.000000 0.000000
vt 0.000000 0.000000
vt 0.000000 0.000000
vt 0.000000 0.000000
vt 0.000000 0.000000
vt 0.000000 0.000000
vt 0.000000 0.000000
vt 0.000000 0.000000
vt 0.000000 0.000000
vt 0.000000 0.000000
vt 0.000000 0.000000
vt 0.000000 0.000000
vt 0.000000 0.000000
vt 0.000000 0.000000
vt 0.000000 0.000000
vt 0.000000 0.000000
vt 0.000000 0.000000
vt 0.000000 0.000000
vt 0.000000 0.000000
vt 0.000000 0.000000
vt 0.000000 0.000000
vt 0.000000 0.000000
vt 0.000000 0.000000
vt 0.000000 0.000000
vt 0.000000 0.000000
vt 0.000000 0.000000
vt 0.000000 0.000000
vt 0.000000 0.000000
vt 0.000000 0.000000
vt 0.000000 0.000000
vt 0.000000 0.000000
vt 0.000000 0.000000
vt 0.000000 0.000000
vt 0.000000 0.000000
vt 0.000000 0.000000
vt 0.000000 0.000000
vt 0.000000 0.000000
vt 0.000000 0.000000
vt 0.000000 0.000000
vt 0.000000 0.000000
vt 0.000000 0.000000
vt 0.000000 0.000000
vt 0.000000 0.000000
vt 0.000000 0.000000
vt 0.000000 0.000000
vt 0.000000 0.000000
vt 0.000000 0.000000
vt 0.000000 0.000000
vt 0.000000 0.000000
vt 0.000000 0.000000
vt 0.000000 0.000000
vt 0.000000 0.000000
vt 0.000000 0.000000
vt 0.000000 0.000000
vt 0.000000 0.000000
vt 0.000000 0.000000
vt 0.000000 0.000000
vt 0.000000 0.000000
vt 0.000000 0.000000
vt 0.000000 0.000000
vt 0.000000 0.000000
vt 0.000000 0.000000
vt 0.000000 0.000000
vt 0.000000 0.000000
s 0
f 38/38/1 37/37/1 25/25/1 12/12/1
f 41/41/2 38/38/2 12/12/2 11/11/2
f 42/42/3 45/45/3 48/48/3
f 52/52/4 54/54/4 42/42/4 48/48/4
f 53/53/5 52/52/5 48/48/5 45/45/5
f 4/4/6 14/14/6 17/17/6 7/7/6
f 2/2/7 10/10/7 15/15/7 13/13/7
f 6/6/8 7/7/8 17/17/8 16/16/8
f 10/10/9 6/6/9 16/16/9 15/15/9
f 2/2/7 13/13/7 14/14/7 4/4/7
f 16/16/3 17/17/3 15/15/3
f 17/17/3 14/14/3 15/15/3
f 4/4/6 7/7/6 22/22/6 19/19/6
f 10/10/7 2/2/7 18/18/7 20/20/7
f 7/7/8 6/6/8 21/21/8 22/22/8
f 6/6/9 10/10/9 20/20/9 21/21/9
f 2/2/7 4/4/7 19/19/7 18/18/7
f 26/26/10 31/31/10 30/30/10 39/39/10
f 39/39/11 30/30/11 28/28/11 23/23/11
f 23/23/12 28/28/12 27/27/12 1/1/12
f 26/26/13 24/24/13 29/29/13 31/31/13
f 24/24/14 1/1/14 27/27/14 29/29/14
f 31/31/3 29/29/3 30/30/3
f 29/29/3 27/27/3 30/30/3
f 39/39/10 35/35/10 36/36/10 26/26/10
f 23/23/15 1/1/15 39/39/15
f 23/23/11 33/33/11 35/35/11 39/39/11
f 1/1/12 32/32/12 33/33/12 23/23/12
f 30/30/3 27/27/3 28/28/3
f 27/27/16 30/30/16 39/39/16 1/1/16
f 54/54/17 53/53/17 45/45/17 42/42/17
f 24/24/13 26/26/13 36/36/13 34/34/13
f 1/1/14 24/24/14 34/34/14 32/32/14
f 40/40/18 43/43/18 46/46/18 47/47/18
f 43/43/19 3/3/19 44/44/19 46/46/19
f 40/40/20 47/47/20 44/44/20 3/3/20
f 43/43/18 40/40/18 50/50/18 51/51/18
f 3/3/19 43/43/19 51/51/19 49/49/19
f 3/3/20 49/49/20 50/50/20 40/40/20
f 44/44/3 47/47/3 46/46/3
f 50/50/15 49/49/15 51/51/15
f 37/37/21 41/41/21 11/11/21 25/25/21
f 11/11/3 12/12/3 25/25/3
f 9/9/22 8/8/22 56/56/22 57/57/22
f 8/8/23 5/5/23 55/55/23 56/56/23
f 5/5/24 9/9/24 57/57/24 55/55/24
f 57/57/3 56/56/3 55/55/3
f 60/60/3 58/58/3 59/59/3
f 63/63/3 61/61/3 62/62/3
f 59/59/25 62/62/25 61/61/25 58/58/25
f 60/60/26 63/63/26 62/62/26 59/59/26
f 58/58/27 61/61/27 63/63/27 60/60/27
f 66/66/3 67/67/3 71/71/3 70/70/3
f 66/66/7 70/70/7 68/68/7 64/64/7
f 65/65/7 67/67/7 71/71/7 69/69/7
f 64/64/3 65/65/3 69/69/3 68/68/3
f 73/73/3 74/74/3 78/78/3 77/77/3
f 76/76/15 72/72/15 87/87/15 89/89/15
f 72/72/15 80/80/15 91/91/15 87/87/15
f 79/79/8 74/74/8 82/82/8 83/83/8
f 75/75/8 74/74/8 79/79/8
f 75/75/8 78/78/8 74/74/8
f 64/64/9 67/67/9 66/66/9
f 65/65/9 67/67/9 64/64/9
f 82/82/9 81/81/9 83/83/9
f 81/81/9 80/80/9 83/83/9
f 72/72/15 79/79/15 83/83/15 80/80/15
f 82/82/8 74/74/8 85/85/8 86/86/8
f 85/85/3 84/84/3 94/94/3 86/86/3
f 73/73/7 81/81/7 94/94/7 84/84/7
f 81/81/9 82/82/9 86/86/9 94/94/9
f 74/74/6 73/73/6 84/84/6 85/85/6
f 87/87/7 88/88/7 90/90/7 89/89/7
f 88/88/7 87/87/7 91/91/7 92/92/7
f 80/80/9 81/81/9 92/92/9 91/91/9
f 88/88/7 92/92/7 97/97/7 95/95/7
f 77/77/6 76/76/6 89/89/6 90/90/6
f 94/94/3 84/84/3 95/95/3 97/97/3
f 84/84/3 93/93/3 96/96/3 95/95/3
f 77/77/6 90/90/6 96/96/6 93/93/6
f 73/73/8 77/77/8 93/93/8 84/84/8
f 92/92/9 81/81/9 94/94/9 97/97/9
f 90/90/7 88/88/7 95/95/7 96/96/7
f 70/70/9 71/71/9 103/103/9 102/102/9
f 68/68/7 70/70/7 100/100/7 98/98/7
f 69/69/7 71/71/7 101/101/7 99/99/7
f 68/68/3 69/69/3 99/99/3 98/98/3
f 102/102/3 103/103/3 105/105/3 104/104/3
f 71/71/8 101/101/8 105/105/8 103/103/8
f 100/100/7 70/70/7 102/102/7 104/104/7
f 101/101/6 100/100/6 104/104/6 105/105/6
f 108/108/8 112/112/8 113/113/8 109/109/8
f 107/107/6 111/111/6 112/112/6 108/108/6
f 109/109/9 113/113/9 110/110/9 106/106/9
f 106/106/7 110/110/7 111/111/7 107/107/7
f 110/110/28 114/114/28 115/115/28 111/111/28
f 112/112/29 116/116/29 117/117/29 113/113/29
f 111/111/6 115/115/6 116/116/6 112/112/6
f 113/113/9 117/117/9 114/114/9 110/110/9
f 116/116/3 115/115/3 117/117/3
f 114/114/3 117/117/3 115/115/3
