# Blender 3.3.1
# www.blender.org
o golfclub
v 0.250000 0.000000 -0.250000
v -0.250000 0.000000 -0.250000
v 0.250000 0.000000 0.250000
v -0.250000 0.000000 0.250000
v 0.250000 0.000000 -0.250000
v -0.250000 0.000000 -0.250000
v 0.250000 0.000000 0.250000
v -0.250000 0.000000 0.250000
v 0.250000 0.000000 -0.250000
v -0.250000 0.000000 -0.250000
v 0.250000 0.000000 0.250000
v -0.250000 0.000000 0.250000
v 0.250000 0.000000 -0.250000
v -0.250000 0.000000 -0.250000
v 0.250000 0.000000 0.250000
v -0.250000 0.000000 0.250000
v 0.250000 0.000000 -0.250000
v -0.250000 0.000000 -0.250000
v 0.250000 0.000000 0.250000
v -0.250000 0.000000 0.250000
v 0.250000 0.000000 -0.250000
v -0.250000 0.000000 -0.250000
v 0.250000 0.000000 0.250000
v -0.250000 0.000000 0.250000
v 0.250000 0.000000 -0.250000
v -0.250000 0.000000 -0.250000
v 0.250000 0.000000 0.250000
v -0.250000 0.000000 0.250000
v 0.250000 0.000000 -0.250000
v -0.250000 0.000000 -0.250000
v 0.250000 0.000000 0.250000
v -0.250000 0.000000 0.250000
v 0.268304 0.358637 0.303765
v 0.268304 0.358637 -0.196235
v -0.250000 0.250000 -0.250000
v -0.250000 0.250000 0.250000
v -0.496116 0.000000 -0.250000
v -0.496116 0.000000 0.250000
v -0.496116 0.250000 -0.250000
v -0.496116 0.250000 0.250000
v -1.254870 3.755800 -0.250000
v -1.254870 3.755800 0.250000
v -1.500986 3.755800 -0.250000
v -1.500986 3.755800 0.250000
vn -0.0000 -1.0000 -0.0000
vn -0.0000 1.0000 -0.0000
vn -0.0433 -0.0866 0.9953
vn -0.2051 0.9787 -0.0000
vn 0.0433 0.0866 -0.9953
vn -0.0000 -0.0000 -1.0000
vn 0.9987 -0.0510 -0.0000
vn -1.0000 -0.0000 -0.0000
vn 0.9613 0.2755 -0.0000
vn -0.0000 -0.0000 1.0000
vn -0.9613 -0.2755 -0.0000
vt 0.000000 0.000000
vt 1.000000 0.000000
vt 0.000000 1.000000
vt 1.000000 1.000000
vt 0.000000 0.000000
vt 1.000000 0.000000
vt 0.000000 1.000000
vt 1.000000 1.000000
vt 0.000000 0.000000
vt 1.000000 0.000000
vt 0.000000 1.000000
vt 1.000000 1.000000
vt 0.000000 0.000000
vt 1.000000 0.000000
vt 0.000000 1.000000
vt 1.000000 1.000000
vt 0.000000 0.000000
vt 1.000000 0.000000
vt 0.000000 1.000000
vt 1.000000 1.000000
vt 0.000000 0.000000
vt 1.000000 0.000000
vt 0.000000 1.000000
vt 1.000000 1.000000
vt 0.000000 0.000000
vt 1.000000 0.000000
vt 0.000000 1.000000
vt 1.000000 1.000000
vt 0.000000 0.000000
vt 1.000000 0.000000
vt 0.000000 1.000000
vt 1.000000 1.000000
vt 0.000000 1.000000
vt 0.000000 0.000000
vt 1.000000 0.000000
vt 1.000000 1.000000
vt 1.000000 0.000000
vt 1.000000 1.000000
vt 1.000000 0.000000
vt 1.000000 1.000000
vt 1.000000 0.000000
vt 1.000000 1.000000
vt 1.000000 0.000000
vt 1.000000 1.000000
s 0
f 1/1/1 3/3/1 4/4/1 2/2/1
f 5/5/2 6/6/2 8/8/2 7/7/2
f 3/3/2 1/1/2 5/5/2 7/7/2
f 4/4/2 3/3/2 7/7/2 8/8/2
f 1/1/2 2/2/2 6/6/2 5/5/2
f 2/2/2 4/4/2 8/8/2 6/6/2
f 9/9/2 10/10/2 12/12/2 11/11/2
f 13/13/1 15/15/1 16/16/1 14/14/1
f 11/11/2 15/15/2 13/13/2 9/9/2
f 12/12/2 16/16/2 15/15/2 11/11/2
f 9/9/2 13/13/2 14/14/2 10/10/2
f 10/10/2 14/14/2 16/16/2 12/12/2
f 17/17/2 18/18/2 20/20/2 19/19/2
f 21/21/1 23/23/1 24/24/1 22/22/1
f 19/19/2 23/23/2 21/21/2 17/17/2
f 20/20/2 24/24/2 23/23/2 19/19/2
f 17/17/2 21/21/2 22/22/2 18/18/2
f 18/18/2 22/22/2 24/24/2 20/20/2
f 25/25/1 27/27/1 28/28/1 26/26/1
f 32/32/3 31/31/3 33/33/3 36/36/3
f 27/27/2 25/25/2 29/29/2 31/31/2
f 28/28/2 27/27/2 31/31/2 32/32/2
f 25/25/2 26/26/2 30/30/2 29/29/2
f 26/26/2 28/28/2 32/32/2 30/30/2
f 34/34/4 35/35/4 36/36/4 33/33/4
f 29/29/5 30/30/5 35/35/5 34/34/5
f 35/35/6 30/30/6 37/37/6 39/39/6
f 31/31/7 29/29/7 34/34/7 33/33/7
f 37/37/8 38/38/8 40/40/8 39/39/8
f 36/36/9 35/35/9 41/41/9 42/42/9
f 30/30/1 32/32/1 38/38/1 37/37/1
f 32/32/10 36/36/10 40/40/10 38/38/10
f 42/42/2 41/41/2 43/43/2 44/44/2
f 35/35/6 39/39/6 43/43/6 41/41/6
f 39/39/11 40/40/11 44/44/11 43/43/11
f 40/40/10 36/36/10 42/42/10 44/44/10
