# Blender 3.3.1
# www.blender.org
o L123_grass
v 100.000000 35.000000 150.000000
v 125.000000 35.000000 150.000000
v 125.000000 40.000000 200.000000
v 100.000000 40.000000 200.000000
v 50.000000 -5.000000 350.000000
v -150.000000 0.000000 350.000000
v -50.000000 0.000000 450.000000
v 200.000000 0.000000 450.000000
v 75.000000 0.000000 450.000000
v 200.000000 0.000000 350.000000
v 125.000000 0.000000 350.000000
v 125.000000 5.000000 250.000000
v 200.000000 5.000000 250.000000
v 0.000000 0.000000 350.000000
v 62.500000 0.000000 400.000000
v 100.000000 0.000000 400.000000
v 50.000000 5.000000 350.000000
v -150.000000 10.000000 350.000000
v -50.000000 10.000000 450.000000
v 200.000000 10.000000 450.000000
v 75.000000 10.000000 450.000000
v 200.000000 10.000000 350.000000
v 125.000000 10.000000 350.000000
v 125.000000 15.000000 250.000000
v 200.000000 15.000000 250.000000
v 0.000000 10.000000 350.000000
v 62.500000 10.000000 400.000000
v 100.000000 10.000000 400.000000
v -153.535538 0.000000 353.535522
v -53.535534 0.000000 453.535522
v 200.000000 0.000000 455.000000
v 75.000000 0.000000 455.000000
v 120.000000 0.000000 350.000000
v 120.000000 5.000000 250.000000
v 120.000000 10.000000 350.000000
v 50.000000 0.000000 -50.000000
v 50.000000 0.000000 100.000000
v -50.000000 0.000000 100.000000
v 50.000000 0.000000 150.000000
v -50.000000 0.000000 150.000000
v 0.000000 0.000000 250.000000
v -100.000000 0.000000 250.000000
v 0.000000 0.000000 300.000000
v 50.000000 10.000000 -50.000000
v -50.000000 10.000000 -50.000000
v 50.000000 10.000000 100.000000
v -50.000000 10.000000 100.000000
v 50.000000 25.000000 150.000000
v -50.000000 25.000000 150.000000
v 50.000000 10.000000 200.000000
v -50.000000 10.000000 200.000000
v 0.000000 10.000000 250.000000
v -100.000000 10.000000 250.000000
v 0.000000 10.000000 300.000000
v -100.000000 10.000000 300.000000
v -50.000000 0.000000 -50.000000
v 50.000000 0.000000 200.000000
v -50.000000 0.000000 200.000000
v -100.000000 0.000000 300.000000
v 125.000000 30.000000 200.000000
v 125.000000 25.000000 150.000000
v 100.000000 25.000000 150.000000
v 100.000000 20.000000 250.000000
v 0.000000 0.000000 310.000000
v -100.000000 0.000000 310.000000
v 100.000000 20.000000 200.000000
v 100.000000 30.000000 200.000000
v 100.000000 10.000000 200.000000
v 100.000000 10.000000 250.000000
v 75.000000 10.000000 200.000000
v 75.000000 10.000000 250.000000
v 75.000000 20.000000 200.000000
v 75.000000 25.000000 250.000000
vn -0.0000 0.9950 -0.0995
vn 0.8944 -0.0000 0.4472
vn -0.0000 -0.0000 -1.0000
vn -0.0000 -0.0000 1.0000
vn -0.7071 -0.0000 0.7071
vn -0.6247 -0.0000 0.7809
vn -0.0000 -1.0000 -0.0000
vn -1.0000 -0.0000 -0.0000
vn 1.0000 -0.0000 -0.0000
vn -0.9701 -0.0000 0.2425
vn 0.7071 -0.0000 -0.7071
vn -0.7071 -0.0000 -0.7071
vn -0.0000 1.0000 -0.0000
vn 0.0995 0.9950 -0.0000
vn 0.0987 0.9874 -0.1234
vn -0.0665 0.9972 -0.0332
vn -0.0000 0.9988 0.0499
vn -0.0000 -0.9988 -0.0499
vn 0.7071 -0.0000 0.7071
vn -0.0000 0.9578 -0.2873
vn -0.0000 0.9578 0.2873
vn 0.1961 0.9806 -0.0000
vt 0.000000 0.000000
vt 0.000000 0.000000
vt 0.000000 0.000000
vt 0.000000 0.000000
vt 0.000000 0.000000
vt 0.000000 0.000000
vt 0.000000 0.000000
vt 0.000000 0.000000
vt 0.000000 0.000000
vt 0.000000 0.000000
vt 0.000000 0.000000
vt 0.000000 0.000000
vt 0.000000 0.000000
vt 0.000000 0.000000
vt 0.000000 0.000000
vt 0.000000 0.000000
vt 0.000000 0.000000
vt 0.000000 0.000000
vt 0.000000 0.000000
vt 0.000000 0.000000
vt 0.000000 0.000000
vt 0.000000 0.000000
vt 0.000000 0.000000
vt 0.000000 0.000000
vt 0.000000 0.000000
vt 0.000000 0.000000
vt 0.000000 0.000000
vt 0.000000 0.000000
vt 0.000000 0.000000
vt 0.000000 0.000000
vt 0.000000 0.000000
vt 0.000000 0.000000
vt 0.000000 0.000000
vt 0.000000 0.000000
vt 0.000000 0.000000
vt 0.000000 0.000000
vt 0.000000 0.000000
vt 0.000000 0.000000
vt 0.000000 0.000000
vt 0.000000 0.000000
vt 0.000000 0.000000
vt 0.000000 0.000000
vt 0.000000 0.000000
vt 0.000000 0.000000
vt 0.000000 0.000000
vt 0.000000 0.000000
vt 0.000000 0.000000
vt 0.000000 0.000000
vt 0.000000 0.000000
vt 0.000000 0.000000
vt 0.000000 0.000000
vt 0.000000 0.000000
vt 0.000000 0.000000
vt 0.000000 0.000000
vt 0.000000 0.000000
vt 0.000000 0.000000
vt 0.000000 0.000000
vt 0.000000 0.000000
vt 0.000000 0.000000
vt 0.000000 0.000000
vt 0.000000 0.000000
vt 0.000000 0.000000
vt 0.000000 0.000000
vt 0.000000 0.000000
vt 0.000000 0.000000
vt 0.000000 0.000000
vt 0.000000 0.000000
vt 0.000000 0.000000
vt 0.000000 0.000000
vt 0.000000 0.000000
vt 0.000000 0.000000
vt 0.000000 0.000000
vt 0.000000 0.000000
s 0
f 4/4/1 3/3/1 2/2/1
f 1/1/1 4/4/1 2/2/1
f 9/9/2 16/16/2 28/28/2 21/21/2
f 5/5/3 17/17/3 23/23/3 11/11/3
f 14/14/4 5/5/4 17/17/4 26/26/4
f 5/5/5 16/16/5 28/28/5 17/17/5
f 14/14/6 15/15/6 27/27/6 26/26/6
f 12/12/3 24/24/3 25/25/3 13/13/3
f 9/9/7 8/8/7 31/31/7 32/32/7
f 43/43/8 14/14/8 26/26/8 54/54/8
f 10/10/9 13/13/9 25/25/9 22/22/9
f 7/7/4 9/9/4 21/21/4 19/19/4
f 15/15/4 16/16/4 28/28/4 27/27/4
f 6/6/4 14/14/4 26/26/4 18/18/4
f 15/15/10 9/9/10 21/21/10 27/27/10
f 5/5/11 43/43/11 54/54/11 17/17/11
f 5/5/10 15/15/10 27/27/10 17/17/10
f 11/11/4 10/10/4 22/22/4 23/23/4
f 43/43/3 59/59/3 55/55/3 54/54/3
f 16/16/2 11/11/2 23/23/2 28/28/2
f 8/8/9 10/10/9 22/22/9 20/20/9
f 59/59/12 6/6/12 18/18/12 55/55/12
f 55/55/13 26/26/13 54/54/13
f 18/18/13 26/26/13 55/55/13
f 26/26/14 17/17/14 54/54/14
f 26/26/15 27/27/15 17/17/15
f 28/28/1 17/17/1 27/27/1
f 17/17/16 28/28/16 23/23/16
f 26/26/13 18/18/13 19/19/13
f 21/21/13 26/26/13 19/19/13
f 27/27/13 26/26/13 21/21/13
f 28/28/13 27/27/13 21/21/13
f 20/20/13 28/28/13 21/21/13
f 22/22/13 28/28/13 20/20/13
f 23/23/13 28/28/13 22/22/13
f 25/25/17 23/23/17 22/22/17
f 24/24/17 23/23/17 25/25/17
f 6/6/7 7/7/7 30/30/7 29/29/7
f 11/11/4 23/23/4 35/35/4 33/33/4
f 12/12/18 11/11/18 33/33/18 34/34/18
f 37/37/9 36/36/9 44/44/9 46/46/9
f 57/57/4 50/50/4 51/51/4 58/58/4
f 36/36/3 56/56/3 45/45/3 44/44/3
f 40/40/8 58/58/8 51/51/8 49/49/8
f 56/56/8 38/38/8 47/47/8 45/45/8
f 57/57/19 50/50/19 52/52/19 41/41/19
f 37/37/9 46/46/9 48/48/9 39/39/9
f 58/58/12 42/42/12 53/53/12 51/51/12
f 37/37/3 38/38/3 47/47/3 46/46/3
f 41/41/9 52/52/9 54/54/9 43/43/9
f 39/39/3 40/40/3 49/49/3 48/48/3
f 42/42/8 59/59/8 55/55/8 53/53/8
f 38/38/8 40/40/8 49/49/8 47/47/8
f 67/67/1 60/60/1 61/61/1
f 39/39/9 48/48/9 50/50/9 57/57/9
f 48/48/20 46/46/20 47/47/20
f 49/49/20 48/48/20 47/47/20
f 46/46/13 45/45/13 47/47/13
f 46/46/13 44/44/13 45/45/13
f 49/49/21 50/50/21 48/48/21
f 50/50/21 49/49/21 51/51/21
f 51/51/13 52/52/13 50/50/13
f 53/53/13 52/52/13 51/51/13
f 52/52/13 53/53/13 54/54/13
f 54/54/13 53/53/13 55/55/13
f 4/4/4 67/67/4 60/60/4 3/3/4
f 43/43/13 59/59/13 65/65/13 64/64/13
f 62/62/1 67/67/1 61/61/1
f 70/70/7 68/68/7 71/71/7
f 68/68/7 69/69/7 71/71/7
f 23/23/8 24/24/8 12/12/8 11/11/8
f 21/21/4 9/9/4 8/8/4 20/20/4
f 18/18/5 6/6/5 7/7/5 19/19/5
f 3/3/9 60/60/9 61/61/9 2/2/9
f 1/1/8 62/62/8 67/67/8 4/4/8
f 2/2/3 61/61/3 62/62/3 1/1/3
f 72/72/1 73/73/1 66/66/1
f 66/66/22 73/73/22 63/63/22
f 71/71/4 69/69/4 63/63/4 73/73/4
f 69/69/9 68/68/9 66/66/9 63/63/9
f 70/70/8 71/71/8 73/73/8 72/72/8
f 68/68/3 70/70/3 72/72/3 66/66/3
