# Blender 3.3.1
# www.blender.org
o L1
v 50.000000 0.000000 -50.000000
v -50.000000 0.000000 -50.000000
v 50.000000 0.000000 100.000000
v -50.000000 0.000000 100.000000
v 50.000000 0.000000 150.000000
v -50.000000 0.000000 150.000000
v 50.000000 0.000000 200.000000
v -50.000000 0.000000 200.000000
v 0.000000 0.000000 250.000000
v -100.000000 0.000000 250.000000
v 0.000000 0.000000 300.000000
v -100.000000 0.000000 300.000000
v 50.000000 10.000000 -50.000000
v -50.000000 10.000000 -50.000000
v 50.000000 10.000000 100.000000
v -50.000000 10.000000 100.000000
v 50.000000 25.000000 150.000000
v -50.000000 25.000000 150.000000
v 50.000000 10.000000 200.000000
v -50.000000 10.000000 200.000000
v 0.000000 10.000000 250.000000
v -100.000000 10.000000 250.000000
v 0.000000 10.000000 300.000000
v -100.000000 10.000000 300.000000
v -60.000000 0.000000 -60.000000
v -60.000000 0.000000 200.000000
v -110.000000 0.000000 250.000000
v -110.000000 0.000000 300.000000
v 60.000000 0.000000 200.000000
v 60.000000 0.000000 -60.000000
v 10.000000 0.000000 250.000000
v 10.000000 0.000000 300.000000
v 50.000000 0.000000 -50.000000
v -50.000000 0.000000 -50.000000
v 50.000000 0.000000 200.000000
v -50.000000 0.000000 200.000000
v 0.000000 0.000000 250.000000
v -100.000000 0.000000 250.000000
v 0.000000 0.000000 300.000000
v -100.000000 0.000000 300.000000
v -60.000000 0.000000 -60.000000
v -60.000000 0.000000 200.000000
v -110.000000 0.000000 250.000000
v -110.000000 0.000000 300.000000
v 60.000000 0.000000 200.000000
v 60.000000 0.000000 -60.000000
v 10.000000 0.000000 250.000000
v 10.000000 0.000000 300.000000
v 50.000000 30.000000 -50.000000
v -50.000000 30.000000 -50.000000
v 50.000000 30.000000 100.000000
v -50.000000 30.000000 100.000000
v 50.000000 30.000000 150.000000
v -50.000000 30.000000 150.000000
v 50.000000 30.000000 200.000000
v -50.000000 30.000000 200.000000
v 50.000000 30.000000 -50.000000
v -50.000000 30.000000 -50.000000
v 50.000000 30.000000 200.000000
v -50.000000 30.000000 200.000000
v 0.000000 30.000000 250.000000
v -100.000000 30.000000 250.000000
v 0.000000 30.000000 300.000000
v -100.000000 30.000000 300.000000
v -60.000000 30.000000 -60.000000
v -60.000000 30.000000 200.000000
v -110.000000 30.000000 250.000000
v -110.000000 30.000000 300.000000
v 60.000000 30.000000 200.000000
v 60.000000 30.000000 -60.000000
v 10.000000 30.000000 250.000000
v 10.000000 30.000000 300.000000
vn 1.0000 -0.0000 -0.0000
vn -0.0000 -0.0000 1.0000
vn -0.0000 -0.0000 -1.0000
vn -1.0000 -0.0000 -0.0000
vn 0.7071 -0.0000 0.7071
vn -0.7071 -0.0000 -0.7071
vn -0.0000 0.9578 -0.2873
vn -0.0000 1.0000 -0.0000
vn -0.0000 0.9578 0.2873
vt 0.000000 0.000000
vt 0.000000 0.000000
vt 0.000000 0.000000
vt 0.000000 0.000000
vt 0.000000 0.000000
vt 0.000000 0.000000
vt 0.000000 0.000000
vt 0.000000 0.000000
vt 0.000000 0.000000
vt 0.000000 0.000000
vt 0.000000 0.000000
vt 0.000000 0.000000
vt 0.000000 0.000000
vt 0.000000 0.000000
vt 0.000000 0.000000
vt 0.000000 0.000000
vt 0.000000 0.000000
vt 0.000000 0.000000
vt 0.000000 0.000000
vt 0.000000 0.000000
vt 0.000000 0.000000
vt 0.000000 0.000000
vt 0.000000 0.000000
vt 0.000000 0.000000
vt 0.000000 0.000000
vt 0.000000 0.000000
vt 0.000000 0.000000
vt 0.000000 0.000000
vt 0.000000 0.000000
vt 0.000000 0.000000
vt 0.000000 0.000000
vt 0.000000 0.000000
vt 0.000000 0.000000
vt 0.000000 0.000000
vt 0.000000 0.000000
vt 0.000000 0.000000
vt 0.000000 0.000000
vt 0.000000 0.000000
vt 0.000000 0.000000
vt 0.000000 0.000000
vt 0.000000 0.000000
vt 0.000000 0.000000
vt 0.000000 0.000000
vt 0.000000 0.000000
vt 0.000000 0.000000
vt 0.000000 0.000000
vt 0.000000 0.000000
vt 0.000000 0.000000
vt 0.000000 0.000000
vt 0.000000 0.000000
vt 0.000000 0.000000
vt 0.000000 0.000000
vt 0.000000 0.000000
vt 0.000000 0.000000
vt 0.000000 0.000000
vt 0.000000 0.000000
vt 0.000000 0.000000
vt 0.000000 0.000000
vt 0.000000 0.000000
vt 0.000000 0.000000
vt 0.000000 0.000000
vt 0.000000 0.000000
vt 0.000000 0.000000
vt 0.000000 0.000000
vt 0.000000 0.000000
vt 0.000000 0.000000
vt 0.000000 0.000000
vt 0.000000 0.000000
vt 0.000000 0.000000
vt 0.000000 0.000000
vt 0.000000 0.000000
vt 0.000000 0.000000
s 0
f 3/3/1 1/1/1 13/13/1 15/15/1
f 7/7/2 19/19/2 20/20/2 8/8/2
f 1/1/3 2/2/3 14/14/3 13/13/3
f 6/6/4 8/8/4 20/20/4 18/18/4
f 2/2/4 4/4/4 16/16/4 14/14/4
f 7/7/5 19/19/5 21/21/5 9/9/5
f 3/3/1 15/15/1 17/17/1 5/5/1
f 8/8/6 10/10/6 22/22/6 20/20/6
f 3/3/3 4/4/3 16/16/3 15/15/3
f 9/9/1 21/21/1 23/23/1 11/11/1
f 5/5/3 6/6/3 18/18/3 17/17/3
f 10/10/4 12/12/4 24/24/4 22/22/4
f 4/4/4 6/6/4 18/18/4 16/16/4
f 11/11/2 23/23/2 24/24/2 12/12/2
f 5/5/1 17/17/1 19/19/1 7/7/1
f 17/17/7 15/15/7 16/16/7
f 18/18/7 17/17/7 16/16/7
f 15/15/8 14/14/8 16/16/8
f 15/15/8 13/13/8 14/14/8
f 18/18/9 19/19/9 17/17/9
f 19/19/9 18/18/9 20/20/9
f 20/20/8 21/21/8 19/19/8
f 22/22/8 21/21/8 20/20/8
f 21/21/8 22/22/8 23/23/8
f 22/22/8 24/24/8 23/23/8
f 8/8/8 36/36/8 35/35/8 7/7/8
f 9/9/8 31/31/8 47/47/8 37/37/8
f 2/2/8 1/1/8 33/33/8 34/34/8
f 8/8/8 26/26/8 42/42/8 36/36/8
f 31/31/8 47/47/8 48/48/8 32/32/8
f 2/2/8 34/34/8 41/41/8 25/25/8
f 9/9/8 37/37/8 35/35/8 7/7/8
f 11/11/8 32/32/8 48/48/8 39/39/8
f 30/30/8 46/46/8 45/45/8 29/29/8
f 10/10/8 8/8/8 36/36/8 38/38/8
f 26/26/8 27/27/8 43/43/8 42/42/8
f 25/25/8 41/41/8 46/46/8 30/30/8
f 25/25/8 26/26/8 42/42/8 41/41/8
f 11/11/8 39/39/8 37/37/8 9/9/8
f 1/1/8 30/30/8 46/46/8 33/33/8
f 12/12/8 10/10/8 38/38/8 40/40/8
f 27/27/8 28/28/8 44/44/8 43/43/8
f 7/7/8 29/29/8 45/45/8 35/35/8
f 12/12/8 40/40/8 39/39/8 11/11/8
f 12/12/8 40/40/8 44/44/8 28/28/8
f 29/29/8 45/45/8 47/47/8 31/31/8
f 10/10/8 27/27/8 43/43/8 38/38/8
f 39/39/4 63/63/4 61/61/4 37/37/4
f 40/40/1 38/38/1 62/62/1 64/64/1
f 47/47/1 71/71/1 72/72/1 48/48/1
f 8/8/1 6/6/1 54/54/1 56/56/1
f 4/4/1 2/2/1 50/50/1 52/52/1
f 40/40/3 64/64/3 63/63/3 39/39/3
f 39/39/2 48/48/2 72/72/2 63/63/2
f 46/46/1 70/70/1 69/69/1 45/45/1
f 5/5/4 53/53/4 51/51/4 3/3/4
f 42/42/6 43/43/6 67/67/6 66/66/6
f 34/34/2 33/33/2 57/57/2 58/58/2
f 41/41/3 65/65/3 70/70/3 46/46/3
f 41/41/4 42/42/4 66/66/4 65/65/4
f 43/43/4 44/44/4 68/68/4 67/67/4
f 37/37/6 61/61/6 59/59/6 35/35/6
f 6/6/1 4/4/1 52/52/1 54/54/1
f 40/40/2 64/64/2 68/68/2 44/44/2
f 38/38/5 36/36/5 60/60/5 62/62/5
f 45/45/5 69/69/5 71/71/5 47/47/5
f 7/7/4 55/55/4 53/53/4 5/5/4
f 1/1/4 3/3/4 51/51/4 49/49/4
f 57/57/8 70/70/8 65/65/8
f 58/58/8 57/57/8 65/65/8
f 60/60/8 58/58/8 65/65/8
f 65/65/8 66/66/8 60/60/8
f 60/60/8 66/66/8 62/62/8
f 66/66/8 67/67/8 62/62/8
f 62/62/8 67/67/8 64/64/8
f 67/67/8 68/68/8 64/64/8
f 69/69/8 70/70/8 57/57/8
f 59/59/8 69/69/8 57/57/8
f 71/71/8 69/69/8 59/59/8
f 59/59/8 61/61/8 71/71/8
f 71/71/8 61/61/8 72/72/8
f 61/61/8 63/63/8 72/72/8
o L2
v 0.000000 0.000000 300.000000
v -100.000000 0.000000 300.000000
v 50.000000 0.000000 350.000000
v -150.000000 0.000000 350.000000
l 74 76
l 73 74
l 75 73
l 76 75
